<?xml version="1.0" encoding="UTF-8"?>
<svg xmlns="http://www.w3.org/2000/svg" width="310" height="211" viewBox="0 0 310 211" fill="none">
  <g clip-path="url(#clip0_1234_1221)">
    <path fill-rule="evenodd" clip-rule="evenodd" d="M91.6053 204.298H45.1836V200.963H114.696V204.298H91.6053ZM108.635 196.209V198.521H117.137V206.731H108.635V210.066H200.842V206.731H192.34V198.521H200.842V195.186H108.635V196.209ZM217.872 204.298H264.294V200.963H194.782V204.298H217.872Z" fill="#D99227"></path>
    <path fill-rule="evenodd" clip-rule="evenodd" d="M170.032 8.82892L181.638 15.5343L208.536 31.0598V62.1193V93.1789L181.638 108.704L170.032 115.41V106.572V103.641V71.5756V61.4402V56.6175V54.9927L175.13 52.0527L180.219 54.9927V56.6175V67.3289V71.5756V97.7523L198.341 87.2902V62.1193V36.9484L176.54 24.3544L170.032 20.5977V8.82892Z" fill="#F0F0F0"></path>
    <path fill-rule="evenodd" clip-rule="evenodd" d="M122.837 42.708H149.641V109.529V113.983V121.298L154.739 124.238L159.837 121.298V113.983V109.529V42.708H186.641V36.8021L179.222 32.5124H159.837V4.55621V2.94004L154.739 0L149.641 2.94004V4.55621V32.5124H130.264L122.837 36.8021V42.708Z" fill="#D99227"></path>
    <path fill-rule="evenodd" clip-rule="evenodd" d="M139.446 8.82892L127.84 15.5343L100.941 31.0598V62.1193V93.1789L127.84 108.704L139.446 115.41V106.572V103.641V71.5756V61.4402V56.6175V54.9927L134.348 52.0527L129.259 54.9927V56.6175V67.3289V71.5756V97.7523L111.137 87.2902V62.1193V36.9484L132.938 24.3544L139.446 20.5977V8.82892Z" fill="#F0F0F0"></path>
    <path fill-rule="evenodd" clip-rule="evenodd" d="M0.188804 159.562C0.188804 159.046 0.377929 158.341 1.04847 158.341C1.719 158.341 1.79647 158.805 1.79647 159.27C1.81487 159.799 1.9103 160.323 2.08002 160.825C2.72476 162.957 4.98566 163.723 7.00586 163.723C9.25817 163.723 11.2269 162.425 11.2269 160.035C11.2269 157.903 9.85998 156.845 8.12346 155.831L6.18922 154.687C3.12883 152.891 0.76471 150.785 0.76471 147.028C0.76471 142.351 5.45847 140.151 9.58485 140.151C11.214 140.137 12.839 140.319 14.4248 140.692C14.8375 140.804 15.1813 141.028 15.1813 141.5C15.1813 141.973 15.1384 142.274 15.1212 142.661C15.0782 143.521 15.061 144.466 15.061 145.369C15.061 145.902 14.9579 146.796 14.2444 146.796C13.6942 146.796 13.505 146.297 13.505 145.824C13.4426 145.134 13.1695 144.48 12.7227 143.95C12.2902 143.477 11.756 143.109 11.1604 142.872C10.5648 142.635 9.9233 142.536 9.28409 142.584C7.43582 142.584 5.13186 143.443 5.13186 145.635C5.13226 145.857 5.14955 146.078 5.18349 146.297C5.45858 147.81 7.22952 148.876 8.45024 149.53L9.81697 150.286C13.1009 152.109 15.8346 154.43 15.8346 158.444C15.852 159.718 15.5378 160.974 14.9229 162.089C14.308 163.205 13.4135 164.141 12.3273 164.806C10.6854 165.966 8.47603 166.207 6.51601 166.207C4.61826 166.282 2.72381 165.991 0.93681 165.347C0.188904 165.012 0.0771484 164.677 0.0771484 163.877C0.0771484 162.442 0.163089 161.006 0.266249 159.579L0.188804 159.562ZM44.7193 166.198C40.6531 166.198 36.7416 164.986 33.9563 161.9C31.8317 159.487 30.6636 156.381 30.6724 153.166C30.6779 149.979 31.8525 146.905 33.9735 144.526C36.8362 141.354 40.8507 140.142 45.0631 140.142C52.8602 140.142 59.11 144.268 59.11 152.599C59.11 160.929 52.8001 166.198 44.7193 166.198ZM85.1664 158.461C86.1378 156.209 87.0749 153.931 88.0034 151.67C89.1381 148.936 90.3244 146.16 91.3559 143.4C91.4926 143.067 91.5851 142.717 91.6311 142.36C91.6353 142.329 91.6353 142.297 91.6311 142.265C91.5775 142.23 91.5196 142.201 91.459 142.179C91.0684 142.082 90.6668 142.036 90.2642 142.042C89.8085 142.042 89.2928 141.827 89.2928 141.303C89.2928 140.615 90.1524 140.598 90.6424 140.598C91.8287 140.598 93.0237 140.675 94.2015 140.675C95.2503 140.675 96.299 140.598 97.3478 140.598C97.8206 140.598 98.4396 140.709 98.4396 141.303C98.4396 141.896 97.9753 142.042 97.5024 142.042C97.0167 141.988 96.5269 142.096 96.1099 142.351C95.3893 143.118 94.8411 144.029 94.5022 145.025C93.2299 147.965 91.803 150.836 90.4791 153.75C88.9833 157.034 87.5391 160.335 86.0433 163.611C85.7338 164.273 85.0804 166.026 84.2637 166.19H84.0832C83.1376 166.19 82.6476 164.72 82.3639 164.006L73.9478 144.294C73.389 142.988 73.0881 142.48 71.7642 142.136C71.3708 142.059 70.9703 142.025 70.5694 142.033C70.4676 142.045 70.3643 142.034 70.2672 142.001C70.17 141.969 70.0812 141.916 70.0067 141.845C69.9322 141.775 69.874 141.689 69.8361 141.594C69.7981 141.499 69.7813 141.396 69.787 141.294C69.787 140.623 70.5264 140.589 71.0164 140.589C72.6412 140.589 74.2573 140.666 75.8734 140.666C77.2833 140.666 78.7017 140.589 80.1201 140.589C80.5757 140.589 81.3152 140.684 81.3152 141.294C81.3152 141.904 80.8423 142.033 80.3867 142.033C80.0237 142.009 79.6598 142.065 79.3207 142.197C79.2654 142.226 79.2201 142.271 79.191 142.326C79.1618 142.381 79.1502 142.444 79.1574 142.506C79.3107 143.292 79.5558 144.056 79.888 144.784L85.1922 158.453L85.1664 158.461ZM125.571 140.486C125.764 140.409 125.966 140.357 126.172 140.331C126.262 140.331 126.35 140.349 126.432 140.385C126.513 140.421 126.586 140.475 126.646 140.541C126.705 140.608 126.75 140.687 126.776 140.772C126.803 140.857 126.811 140.948 126.8 141.036C126.78 141.254 126.743 141.469 126.688 141.681C126.606 142.164 126.555 142.652 126.533 143.142C126.456 143.83 126.473 144.63 126.336 145.317C126.232 145.713 126.052 146.177 125.562 146.177C125.072 146.177 124.891 145.799 124.891 145.317C124.898 144.973 124.833 144.63 124.702 144.311C124.324 143.452 123.705 143.452 122.82 143.366C121.934 143.28 121.014 143.28 120.241 143.263C119.467 143.245 118.624 143.263 117.825 143.263V151.06H120.567C121.47 151.06 122.545 151.06 123.447 150.991C123.8 150.991 124.522 150.922 124.779 150.639C125.02 150.432 125.218 150.123 125.571 150.123C125.664 150.127 125.755 150.15 125.84 150.19C125.924 150.23 126 150.287 126.062 150.356C126.125 150.426 126.173 150.507 126.203 150.596C126.234 150.684 126.247 150.777 126.241 150.871C126.234 151.098 126.214 151.325 126.181 151.55L125.975 153.269C125.887 153.971 125.838 154.677 125.828 155.384C125.828 155.857 125.682 156.501 125.08 156.501C124.992 156.51 124.902 156.5 124.817 156.471C124.733 156.443 124.655 156.398 124.588 156.338C124.522 156.278 124.469 156.205 124.432 156.124C124.396 156.043 124.376 155.955 124.375 155.865C124.375 155.496 124.376 155.126 124.272 154.756C124.049 154.034 123.482 153.897 122.759 153.811C122.037 153.725 120.954 153.725 120.18 153.708C119.407 153.69 118.607 153.708 117.825 153.708V156.218C117.825 157.799 117.765 159.416 117.825 160.98C117.802 161.526 117.952 162.065 118.255 162.519C118.943 163.319 120.989 163.284 121.934 163.284C122.943 163.337 123.953 163.209 124.917 162.906C125.777 162.528 125.974 161.668 126.129 160.8C126.224 160.37 126.396 159.992 126.894 159.992C127.393 159.992 127.599 160.679 127.599 161.152C127.566 162.388 127.411 163.618 127.135 164.823C126.8 166.035 126.052 165.949 124.96 165.949C122.914 165.949 120.851 165.949 118.813 165.837C117.533 165.837 116.235 165.76 114.954 165.76C114.326 165.76 113.699 165.76 113.071 165.76C112.297 165.76 111.524 165.837 110.75 165.837C110.269 165.837 109.701 165.674 109.701 165.098C109.701 164.522 110.174 164.35 110.629 164.35C110.996 164.359 111.363 164.324 111.721 164.247C112.28 164.127 112.34 163.387 112.392 162.889C112.495 161.977 112.512 161.015 112.529 160.095C112.529 158.754 112.529 157.413 112.529 156.072V150.389C112.529 148.137 112.529 145.824 112.486 143.589C112.426 142.661 112.229 142.455 111.343 142.205C110.942 142.123 110.532 142.089 110.122 142.102C109.658 142.102 109.151 141.904 109.151 141.363C109.151 140.821 109.839 140.658 110.312 140.658C111.919 140.658 113.527 140.735 115.126 140.735H122.605C123.121 140.735 123.688 140.735 124.204 140.735C124.719 140.735 125.063 140.615 125.562 140.546L125.571 140.486ZM157.902 153.983C159.14 155.524 160.39 157.052 161.65 158.565C162.699 159.811 163.783 161.058 164.934 162.21C165.81 163.223 166.988 163.929 168.296 164.221C168.53 164.274 168.769 164.297 169.009 164.29C169.112 164.285 169.215 164.301 169.311 164.336C169.408 164.371 169.497 164.425 169.573 164.495C169.648 164.564 169.71 164.648 169.753 164.741C169.797 164.834 169.821 164.935 169.826 165.038C169.826 165.64 169.276 165.777 168.786 165.777H165.596C164.287 165.862 162.977 165.626 161.779 165.089C159.957 164.17 158.289 161.84 157.086 160.232C156.862 159.94 156.647 159.639 156.424 159.373C155.908 158.651 155.401 157.92 154.893 157.198C154.607 156.749 154.297 156.316 153.965 155.9C153.922 155.862 153.871 155.835 153.816 155.818C153.761 155.802 153.704 155.797 153.647 155.805L150.793 155.728V156.046C150.793 157.387 150.793 158.737 150.793 160.078C150.793 160.997 150.836 161.952 150.939 162.863C151.025 163.602 151.068 164.092 151.893 164.213C152.411 164.289 152.934 164.326 153.458 164.324C153.564 164.315 153.671 164.327 153.772 164.36C153.873 164.393 153.967 164.446 154.047 164.515C154.127 164.585 154.192 164.671 154.239 164.766C154.285 164.862 154.312 164.966 154.318 165.072C154.318 165.657 153.699 165.812 153.226 165.812C151.506 165.812 149.787 165.7 148.068 165.7C146.71 165.7 145.343 165.812 143.976 165.812C143.494 165.812 142.927 165.648 142.927 165.072C142.927 164.496 143.4 164.324 143.864 164.324C144.228 164.332 144.592 164.298 144.947 164.221C145.515 164.101 145.566 163.361 145.626 162.863C145.729 161.952 145.738 160.989 145.755 160.069C145.755 158.728 145.755 157.387 145.755 156.046V150.363C145.755 148.111 145.755 145.799 145.755 143.564C145.687 142.635 145.489 142.429 144.603 142.179C144.202 142.098 143.792 142.063 143.383 142.076C142.918 142.076 142.411 141.879 142.411 141.337C142.411 140.795 143.099 140.632 143.572 140.632C145.093 140.632 146.615 140.709 148.128 140.709C149.847 140.709 151.567 140.632 153.286 140.632C155.47 140.632 157.971 140.821 159.837 142.068C160.609 142.605 161.244 143.315 161.692 144.142C162.14 144.97 162.388 145.89 162.415 146.83C162.415 149.891 160.18 152.195 157.954 154.017L157.902 153.983ZM196.157 140.486C196.351 140.41 196.553 140.358 196.759 140.331C196.848 140.331 196.937 140.349 197.019 140.385C197.1 140.421 197.173 140.475 197.233 140.541C197.292 140.608 197.336 140.687 197.363 140.772C197.39 140.857 197.398 140.948 197.387 141.036C197.37 141.254 197.335 141.469 197.283 141.681C197.193 142.163 197.142 142.652 197.129 143.142C197.051 143.83 197.069 144.63 196.931 145.317C196.836 145.713 196.656 146.177 196.166 146.177C195.676 146.177 195.495 145.799 195.495 145.317C195.502 144.973 195.437 144.63 195.306 144.311C194.928 143.452 194.309 143.452 193.415 143.366C192.558 143.288 191.697 143.254 190.836 143.263C190.036 143.263 189.228 143.263 188.42 143.263V151.06H191.163C192.074 151.06 193.148 151.06 194.051 150.991C194.404 150.991 195.126 150.922 195.375 150.639C195.616 150.432 195.813 150.123 196.166 150.123C196.259 150.127 196.351 150.15 196.435 150.19C196.52 150.23 196.595 150.287 196.658 150.356C196.72 150.426 196.768 150.507 196.799 150.596C196.829 150.684 196.842 150.777 196.836 150.871C196.826 151.098 196.803 151.325 196.768 151.55C196.699 152.126 196.63 152.693 196.57 153.269C196.48 153.971 196.428 154.677 196.415 155.384C196.415 155.857 196.278 156.501 195.676 156.501C195.587 156.51 195.497 156.5 195.413 156.471C195.328 156.443 195.25 156.398 195.184 156.338C195.118 156.278 195.064 156.205 195.028 156.124C194.991 156.043 194.972 155.955 194.971 155.865C194.928 155.496 194.928 155.126 194.868 154.756C194.644 154.034 194.077 153.897 193.346 153.811C192.615 153.725 191.549 153.725 190.767 153.708C189.985 153.69 189.194 153.708 188.412 153.708V156.218C188.412 157.799 188.36 159.416 188.412 160.98C188.391 161.527 188.545 162.066 188.85 162.519C189.538 163.319 191.575 163.284 192.521 163.284C193.53 163.337 194.54 163.209 195.504 162.906C196.364 162.528 196.57 161.668 196.716 160.8C196.811 160.37 196.983 159.992 197.49 159.992C197.997 159.992 198.195 160.679 198.195 161.152C198.162 162.388 198.006 163.618 197.73 164.823C197.395 166.035 196.647 165.949 195.555 165.949C193.501 165.949 191.446 165.949 189.409 165.837C188.12 165.837 186.83 165.76 185.549 165.76C184.922 165.76 184.294 165.76 183.666 165.76C182.893 165.76 182.119 165.837 181.337 165.837C180.864 165.837 180.296 165.674 180.296 165.098C180.296 164.522 180.769 164.35 181.225 164.35C181.592 164.359 181.958 164.324 182.317 164.247C182.876 164.127 182.936 163.387 182.987 162.889C183.078 161.96 183.121 161.028 183.116 160.095C183.116 158.754 183.116 157.413 183.116 156.072V150.389C183.116 148.137 183.168 145.824 183.116 143.589C183.056 142.661 182.858 142.455 181.964 142.205C181.566 142.123 181.159 142.089 180.752 142.102C180.288 142.102 179.781 141.904 179.781 141.363C179.781 140.821 180.46 140.658 180.941 140.658C182.549 140.658 184.148 140.735 185.755 140.735H193.234C193.75 140.735 194.317 140.735 194.825 140.735C195.332 140.735 195.684 140.615 196.183 140.546L196.157 140.486ZM215.517 164.187C216.101 164.058 216.127 163.49 216.187 162.983C216.282 162.052 216.325 161.117 216.316 160.181C216.316 158.788 216.316 157.404 216.316 156.011V150.329C216.316 148.077 216.316 145.764 216.273 143.529C216.273 142.816 216.127 142.394 215.414 142.179C215.059 142.078 214.691 142.032 214.322 142.042C213.806 142.042 213.385 141.844 213.385 141.268C213.385 140.692 214.133 140.598 214.58 140.598C216.076 140.598 217.572 140.675 219.059 140.675C220.546 140.675 221.913 140.598 223.357 140.598C223.795 140.598 224.44 140.692 224.44 141.268C224.44 141.844 224.027 142.042 223.512 142.042C223.202 142.049 222.894 142.087 222.592 142.154C221.775 142.291 221.732 142.764 221.672 143.529C221.612 144.294 221.62 144.819 221.612 145.463C221.612 147.088 221.612 148.704 221.612 150.329V156.011C221.612 157.404 221.612 158.797 221.612 160.189C221.607 161.131 221.65 162.072 221.741 163.009C221.835 163.74 221.956 164.058 222.729 164.187C223.274 164.26 223.822 164.294 224.371 164.29C224.818 164.29 225.308 164.531 225.308 165.038C225.308 165.545 224.724 165.777 224.26 165.777C222.463 165.777 220.666 165.665 218.878 165.665C217.425 165.665 215.973 165.777 214.52 165.777C214.038 165.777 213.471 165.614 213.471 165.038C213.471 164.462 213.944 164.29 214.399 164.29C214.766 164.298 215.132 164.264 215.491 164.187H215.517ZM260.718 140.684C261.57 140.843 262.432 140.952 263.297 141.01C263.778 141.01 264.113 141.268 264.113 141.784C264.113 142.3 264.028 142.644 263.993 143.091C263.899 144.415 263.881 145.764 263.881 147.097C263.881 147.638 263.649 148.214 263.022 148.214C262.54 148.214 262.343 147.879 262.274 147.441C262.229 146.54 261.866 145.684 261.251 145.025C259.635 143.306 256.523 142.678 254.296 142.678C251.906 142.678 250.05 142.919 248.107 144.492C245.803 146.349 245.184 149.186 245.184 152.023C245.184 158.771 249.482 163.602 256.359 163.602C257.101 163.66 257.846 163.554 258.543 163.293C258.895 163.129 258.947 162.906 258.947 162.528V159.57C258.947 158.315 258.947 157.043 258.947 155.788C258.947 154.859 258.672 154.67 257.795 154.421C257.407 154.343 257.012 154.308 256.617 154.318C256.187 154.318 255.689 154.069 255.689 153.579C255.689 152.934 256.316 152.874 256.806 152.874C258.526 152.874 260.245 152.951 261.964 152.951C263.262 152.951 264.543 152.874 265.867 152.874C266.357 152.874 266.95 152.942 266.95 153.579C266.945 153.685 266.918 153.788 266.872 153.883C266.825 153.979 266.76 154.064 266.679 154.133C266.599 154.202 266.505 154.254 266.404 154.286C266.303 154.318 266.196 154.329 266.091 154.318C265.801 154.324 265.513 154.362 265.231 154.43C264.371 154.567 264.303 155.006 264.277 155.788C264.225 157.069 264.234 158.367 264.234 159.639V163.207C264.234 163.946 264.311 164.316 263.598 164.703C261.242 165.863 257.872 166.19 255.268 166.19C246.972 166.19 239.433 162.39 239.433 153.157C239.384 150.973 239.915 148.815 240.972 146.903C242.029 144.991 243.574 143.394 245.45 142.274C248.416 140.555 251.262 140.133 254.631 140.133C255.164 140.133 255.697 140.151 256.23 140.185C257.705 140.236 259.174 140.4 260.623 140.675L260.718 140.684ZM303.28 158.186L302.953 144.69C302.953 144.105 302.953 142.824 302.437 142.412C302.329 142.323 302.207 142.254 302.076 142.205C301.555 142.069 301.015 142.014 300.477 142.042C299.996 142.042 299.54 141.844 299.54 141.303C299.54 140.761 300.288 140.598 300.778 140.598C302.196 140.598 303.615 140.675 305.076 140.675C306.151 140.675 307.243 140.598 308.334 140.598C308.824 140.598 309.495 140.658 309.495 141.303C309.495 141.947 308.979 142.042 308.524 142.042C308.216 142.033 307.91 142.068 307.612 142.145C307.437 142.19 307.272 142.272 307.131 142.386C306.71 142.773 306.701 143.899 306.693 144.415L306.314 164.728C306.314 165.304 306.108 166.155 305.377 166.155C305.063 166.141 304.755 166.063 304.472 165.928C304.188 165.792 303.935 165.6 303.727 165.365C300.443 162.321 297.219 159.184 293.987 156.072C292.267 154.421 290.608 152.71 288.958 150.982L287.152 149.091L286.783 148.696L287.135 160.963C287.135 161.616 287.178 163.791 287.995 164.084C288.519 164.238 289.065 164.307 289.611 164.29C290.075 164.29 290.583 164.505 290.583 165.038C290.583 165.571 289.92 165.777 289.422 165.777C288.511 165.777 287.591 165.777 286.671 165.726C286.155 165.726 285.622 165.665 285.106 165.665C284.591 165.665 284.247 165.665 283.851 165.726C283.072 165.76 282.29 165.777 281.504 165.777C280.997 165.777 280.344 165.7 280.344 165.038C280.344 164.539 280.842 164.29 281.281 164.29C281.758 164.3 282.234 164.254 282.699 164.152C282.783 164.134 282.862 164.099 282.932 164.049C283.456 163.654 283.413 161.212 283.421 160.611L283.722 141.509C283.722 140.916 283.937 140.013 284.694 140.013C285.45 140.013 285.992 140.761 286.413 141.191C289.852 144.63 293.213 148.068 296.678 151.507C297.683 152.495 298.681 153.501 299.669 154.498L302.386 157.258L303.323 158.212L303.28 158.186ZM46.0604 163.645C47.6856 163.671 49.2647 163.105 50.5048 162.055C52.7829 160.052 53.3159 156.648 53.3159 153.776C53.3159 149.71 51.7943 145.463 47.9516 143.555C46.7358 142.967 45.399 142.673 44.0488 142.695C38.3492 142.695 36.3806 147.097 36.3806 152.229C36.3806 158.143 39.613 163.688 46.0604 163.688V163.645ZM150.87 153.02C151.65 153.223 152.455 153.316 153.26 153.295C153.999 153.391 154.749 153.23 155.384 152.839C156.055 152.319 156.587 151.641 156.934 150.866C157.28 150.091 157.43 149.242 157.369 148.395C157.431 147.601 157.314 146.803 157.029 146.06C156.743 145.316 156.296 144.646 155.719 144.097C154.862 143.406 153.793 143.032 152.693 143.039C152.072 143.019 151.451 143.051 150.836 143.134C150.836 143.134 150.836 143.185 150.836 143.202V152.796C150.827 152.853 150.827 152.911 150.836 152.968L150.87 153.02Z" fill="#F0F0F0"></path>
    <path fill-rule="evenodd" clip-rule="evenodd" d="M24.5688 183.108L27.1992 176.308C27.2938 176.05 27.4745 175.672 27.7926 175.672C28.1106 175.672 28.3341 176.188 28.4373 176.446L31.1968 183.039C31.8415 181.148 32.3832 179.162 32.9763 177.254C33.056 177.009 33.1022 176.755 33.1138 176.497C33.1138 176.257 32.7441 176.274 32.5807 176.274C32.4174 176.274 32.1595 176.162 32.1595 175.947C32.1595 175.732 32.4691 175.638 32.6754 175.638C33.1998 175.638 33.7242 175.638 34.24 175.638C34.7558 175.638 35.0394 175.638 35.4435 175.638C35.6326 175.638 35.8819 175.689 35.8819 175.93C35.882 175.977 35.8724 176.024 35.8536 176.068C35.8347 176.111 35.807 176.15 35.7723 176.183C35.7376 176.215 35.6966 176.24 35.6519 176.255C35.6071 176.271 35.5596 176.277 35.5123 176.274C35.3589 176.274 35.206 176.291 35.0566 176.325C34.7472 176.446 34.4634 177.409 34.3517 177.701C33.3201 180.435 32.409 183.271 31.4719 186.04C31.3688 186.349 31.2482 186.822 30.8442 186.822C30.4401 186.822 30.2942 186.332 30.1652 186.031L27.3541 179.437C26.4945 181.604 25.6347 183.856 24.6891 185.971C24.5515 186.28 24.3795 186.83 23.9669 186.83C23.5543 186.83 23.5028 186.469 23.4082 186.194L20.3305 177.254C20.2532 177.047 20.0812 176.489 19.8835 176.394C19.7371 176.331 19.5787 176.302 19.4195 176.308C19.2131 176.308 19.0068 176.214 19.0068 175.981C19.0068 175.749 19.3076 175.672 19.5139 175.672C20.0813 175.672 20.6401 175.672 21.2332 175.672C21.8264 175.672 22.3594 175.672 22.9525 175.672C23.1589 175.672 23.4426 175.672 23.4426 175.981C23.4426 176.291 23.2019 176.308 23.0042 176.308C22.9017 176.291 22.797 176.291 22.6946 176.308C22.6903 176.342 22.6903 176.377 22.6946 176.411C22.7633 176.834 22.8639 177.251 22.9956 177.658C23.2621 178.621 23.5715 179.584 23.8552 180.529C24.1389 181.475 24.371 182.248 24.6461 183.108H24.5688ZM44.7451 181.32V182.42C44.7451 183.108 44.7451 183.813 44.7451 184.501C44.7451 185.584 45.6046 185.507 46.5416 185.507C46.9806 185.531 47.4204 185.476 47.8397 185.343C48.218 185.18 48.304 184.802 48.3728 184.423C48.4158 184.234 48.4845 184.071 48.708 184.071C48.9315 184.071 49.0175 184.372 49.0175 184.578C49.0007 185.117 48.9316 185.652 48.8112 186.177C48.6651 186.71 48.3383 186.667 47.8655 186.667C47.0059 186.667 46.0689 186.667 45.1749 186.667C44.6161 186.667 44.0573 186.667 43.4556 186.667H42.5959C42.252 186.667 41.9168 186.667 41.5729 186.667C41.3666 186.667 41.1173 186.59 41.1173 186.34C41.1173 186.091 41.3236 186.014 41.5299 186.014C41.6871 186.031 41.8456 186.031 42.0028 186.014C42.2521 185.962 42.2777 185.627 42.2949 185.421C42.3738 184.431 42.3968 183.438 42.3638 182.446V179.962C42.3638 178.973 42.3638 177.967 42.3638 176.987C42.3638 176.583 42.2519 176.497 41.8565 176.386C41.6824 176.364 41.5063 176.364 41.3322 176.386C41.1259 176.386 40.9024 176.3 40.9024 176.059C40.9024 175.818 41.2031 175.749 41.4095 175.749C42.1144 175.749 42.8109 175.749 43.5158 175.749H45.5617C46.1978 175.749 46.92 175.749 47.5562 175.749C47.7625 175.749 47.9516 175.698 48.1493 175.672C48.2326 175.64 48.3191 175.617 48.4072 175.603C48.5963 175.603 48.6822 175.741 48.6822 175.913C48.6822 176.085 48.6823 176.11 48.6393 176.196C48.5985 176.409 48.5755 176.625 48.5705 176.841C48.5705 177.142 48.5704 177.495 48.4845 177.787C48.3985 178.079 48.3642 178.156 48.1493 178.156C47.9344 178.156 47.8569 177.993 47.8569 177.795C47.8583 177.645 47.8292 177.496 47.7711 177.357C47.6077 177.005 47.3326 176.979 46.9114 176.944C46.4902 176.91 46.1291 176.944 45.7852 176.944H44.7278V180.383C45.5015 180.383 46.447 180.426 47.1864 180.383C47.3895 180.39 47.5903 180.336 47.7625 180.228C47.8742 180.142 47.9601 180.005 48.1149 180.005C48.1552 180.007 48.1946 180.017 48.2309 180.035C48.2672 180.053 48.2995 180.077 48.326 180.108C48.3525 180.138 48.3725 180.174 48.385 180.212C48.3974 180.251 48.4021 180.291 48.3986 180.331C48.3986 180.624 48.3211 181.071 48.2867 181.372C48.2467 181.68 48.2239 181.99 48.2181 182.3C48.2181 182.506 48.1578 182.79 47.8913 182.79C47.8531 182.794 47.8146 182.789 47.7782 182.777C47.7418 182.765 47.7083 182.745 47.68 182.719C47.6516 182.693 47.6291 182.662 47.6137 182.627C47.5983 182.591 47.5904 182.553 47.5906 182.515C47.5906 182.343 47.5905 182.18 47.5476 182.025C47.453 181.715 47.2037 181.638 46.877 181.612C46.1567 181.55 45.4335 181.527 44.7106 181.544L44.7451 181.32ZM57.7774 183.091L56.9952 184.974C56.8878 185.225 56.8211 185.492 56.7975 185.764C56.7975 185.997 57.021 185.988 57.2015 185.988H57.4165C57.6314 185.988 57.8119 186.083 57.8119 186.315C57.8119 186.547 57.6142 186.641 57.3992 186.641C56.8577 186.641 56.3159 186.59 55.7744 186.59C55.2328 186.59 54.6568 186.641 54.055 186.641C53.8401 186.641 53.6168 186.581 53.6168 186.315C53.6156 186.271 53.6234 186.227 53.6399 186.186C53.6564 186.145 53.6812 186.108 53.7127 186.078C53.7442 186.047 53.7817 186.023 53.8229 186.008C53.8641 185.992 53.9081 185.986 53.952 185.988H54.3732C55.0008 185.893 55.2329 185.395 55.4306 184.853L59.2388 175.999C59.342 175.749 59.5141 175.328 59.8321 175.328C60.1502 175.328 60.2963 175.603 60.4253 175.878C61.7062 178.741 62.8754 181.673 64.1305 184.544C64.3368 185.008 64.7063 185.825 65.2478 185.962C65.4195 185.975 65.592 185.975 65.7637 185.962C65.8101 185.956 65.8573 185.96 65.902 185.974C65.9468 185.987 65.9881 186.01 66.0231 186.041C66.0582 186.072 66.0862 186.11 66.1052 186.153C66.1242 186.196 66.1337 186.242 66.1333 186.289C66.1333 186.667 65.5832 186.616 65.3339 186.616C64.3969 186.616 63.4598 186.616 62.5228 186.616C62.3165 186.616 61.9297 186.616 61.9297 186.323C61.9297 186.031 62.0671 186.022 62.2562 186.005C62.2562 186.005 62.2562 185.945 62.2562 185.928L61.1302 183.1L57.7774 183.091ZM58.2159 181.965H60.709L59.4796 178.775L58.2159 181.965ZM71.489 175.638C72.1595 175.638 72.8301 175.638 73.4921 175.638C74.154 175.638 74.9019 175.638 75.5982 175.638C75.8045 175.638 76.0883 175.638 76.0883 175.947C76.0883 176.257 75.8562 176.274 75.6498 176.274C75.4726 176.256 75.294 176.256 75.1167 176.274C74.7557 176.334 74.7385 176.549 74.7127 176.876C74.644 177.838 74.7127 178.879 74.7127 179.85V182.334C74.7127 182.738 74.644 184.913 74.9707 185.163C75.5513 185.384 76.1741 185.472 76.7933 185.421C77.2747 185.421 78.0052 185.421 78.3749 185.068C78.5409 184.852 78.6504 184.598 78.6931 184.329C78.6931 184.131 78.7961 183.959 79.0282 183.959C79.2604 183.959 79.3378 184.252 79.3378 184.449C79.3174 185.028 79.2425 185.604 79.1143 186.169C78.9338 186.719 78.5383 186.667 78.0139 186.667C77.1542 186.667 76.2946 186.667 75.4349 186.667C74.7902 186.667 74.1454 186.667 73.5007 186.667H72.641C72.3058 186.667 71.9619 186.667 71.6267 186.667C71.2914 186.667 71.171 186.59 71.171 186.34C71.171 186.091 71.3773 186.014 71.5751 186.014C71.7322 186.031 71.8908 186.031 72.0479 186.014C72.2972 185.962 72.3229 185.627 72.3487 185.421C72.4204 184.431 72.4405 183.438 72.4089 182.446V179.962C72.4089 178.973 72.4089 177.967 72.4089 176.987C72.4089 176.583 72.2971 176.497 71.9102 176.386C71.7675 176.369 71.6232 176.369 71.4804 176.386C71.2655 176.386 71.0506 176.3 71.0506 176.059C71.0506 175.818 71.3343 175.749 71.5406 175.749L71.489 175.638ZM88.4245 176.858L86.43 176.91C86.0518 176.91 85.407 176.91 85.1577 177.271C85.0642 177.399 84.9917 177.541 84.9428 177.692C84.8913 177.864 84.8052 178.002 84.6074 178.002C84.4097 178.002 84.2981 177.795 84.2981 177.598C84.3607 177.017 84.4669 176.443 84.6161 175.878C84.6161 175.698 84.7279 175.474 84.9514 175.474C85.1749 175.474 85.4157 175.62 85.6048 175.646C86.0817 175.695 86.5609 175.718 87.0404 175.715H92.9463C93.2714 175.718 93.5962 175.695 93.9176 175.646C94.0567 175.616 94.1973 175.593 94.3389 175.577C94.614 175.577 94.6312 175.844 94.6312 176.05C94.6312 176.618 94.6312 177.194 94.6312 177.77C94.6312 177.95 94.5452 178.156 94.3217 178.156C94.0981 178.156 94.0037 177.942 93.9865 177.718V177.572C93.9349 176.996 92.8259 176.927 92.439 176.919H90.78V182.438C90.7541 183.435 90.7798 184.434 90.8572 185.429C90.8572 185.739 90.9345 185.945 91.2698 186.005C91.5102 186.022 91.7516 186.022 91.992 186.005C92.0401 185.999 92.0889 186.003 92.1356 186.016C92.1822 186.03 92.2257 186.052 92.2634 186.083C92.3011 186.113 92.3323 186.151 92.3551 186.194C92.3779 186.237 92.3918 186.284 92.396 186.332C92.396 186.581 92.1467 186.659 91.9404 186.659C91.1581 186.659 90.3758 186.607 89.5935 186.607C88.9574 186.607 88.3213 186.659 87.6851 186.659C87.4788 186.659 87.2295 186.581 87.2295 186.332C87.2295 186.083 87.4358 186.005 87.6421 186.005C87.799 186.026 87.958 186.026 88.1149 186.005C88.3642 185.954 88.3815 185.618 88.4073 185.412C88.4861 184.423 88.509 183.43 88.4759 182.438V176.919L88.4245 176.858ZM109.572 180.228V180.005C109.572 178.982 109.572 177.942 109.572 176.919C109.572 176.515 109.452 176.429 109.065 176.317C108.894 176.295 108.72 176.295 108.549 176.317C108.343 176.317 108.128 176.231 108.128 175.99C108.128 175.749 108.412 175.681 108.618 175.681C109.349 175.681 110.079 175.681 110.801 175.681C111.523 175.681 112.048 175.681 112.676 175.681C112.882 175.681 113.165 175.681 113.165 175.99C113.165 176.3 112.933 176.317 112.727 176.317C112.592 176.308 112.457 176.308 112.323 176.317C111.979 176.377 111.962 176.601 111.936 176.919C111.867 177.881 111.936 178.922 111.936 179.893V182.377C111.907 183.375 111.93 184.374 112.005 185.369C112.005 185.687 112.082 185.893 112.443 185.945C112.681 185.962 112.919 185.962 113.157 185.945C113.254 185.935 113.35 185.964 113.426 186.025C113.502 186.087 113.55 186.175 113.561 186.272C113.561 186.53 113.294 186.598 113.088 186.598C112.323 186.598 111.549 186.547 110.784 186.547C110.148 186.547 109.512 186.598 108.867 186.598C108.661 186.598 108.377 186.53 108.377 186.272C108.381 186.223 108.395 186.176 108.418 186.134C108.441 186.091 108.472 186.053 108.51 186.023C108.548 185.992 108.591 185.969 108.638 185.956C108.684 185.943 108.733 185.939 108.781 185.945C108.947 185.966 109.114 185.966 109.28 185.945C109.521 185.893 109.546 185.558 109.572 185.352C109.647 184.371 109.67 183.387 109.641 182.403V181.389H104.311V182.369C104.281 183.358 104.307 184.348 104.388 185.335C104.388 185.644 104.457 185.85 104.801 185.911C105.041 185.928 105.283 185.928 105.523 185.911C105.571 185.905 105.62 185.908 105.667 185.922C105.713 185.935 105.757 185.958 105.794 185.988C105.832 186.019 105.863 186.056 105.886 186.099C105.909 186.142 105.923 186.189 105.927 186.237C105.927 186.495 105.661 186.564 105.454 186.564C104.663 186.564 103.872 186.512 103.09 186.512C102.471 186.512 101.844 186.564 101.216 186.564C101.01 186.564 100.761 186.487 100.761 186.237C100.761 185.988 100.967 185.911 101.165 185.911C101.325 185.928 101.486 185.928 101.646 185.911C101.887 185.859 101.913 185.524 101.938 185.317C102.013 184.328 102.036 183.335 102.007 182.343V179.859C102.007 178.87 102.007 177.864 102.007 176.884C102.007 176.48 101.887 176.394 101.5 176.282C101.323 176.261 101.144 176.261 100.967 176.282C100.769 176.282 100.546 176.196 100.546 175.956C100.546 175.715 100.829 175.646 101.036 175.646C101.749 175.646 102.463 175.646 103.176 175.646C103.89 175.646 104.466 175.646 105.11 175.646C105.317 175.646 105.583 175.646 105.583 175.956C105.583 176.265 105.351 176.282 105.145 176.282C105.016 176.27 104.887 176.27 104.758 176.282C104.397 176.343 104.38 176.558 104.354 176.884C104.285 177.881 104.354 178.973 104.354 179.97V180.194L109.572 180.228ZM131.579 183.4L135.336 175.775C135.439 175.56 135.611 175.328 135.869 175.328C136.127 175.328 136.333 175.672 136.376 175.921L137.7 184.613C137.76 185.017 137.821 185.73 138.285 185.868C138.539 185.942 138.802 185.982 139.067 185.988C139.256 185.988 139.471 186.083 139.471 186.297C139.471 186.512 139.136 186.641 138.921 186.641C137.932 186.641 136.884 186.59 135.895 186.538C135.68 186.538 135.302 186.538 135.302 186.194C135.305 186.126 135.331 186.061 135.374 186.008C135.417 185.956 135.476 185.919 135.542 185.902C135.56 185.759 135.56 185.615 135.542 185.472L134.795 179.867L131.88 185.73C131.743 186.005 131.511 186.59 131.141 186.59C130.771 186.59 130.548 186.04 130.41 185.782L129.551 184.251C129.267 183.727 128.923 183.117 128.691 182.575C128.33 181.715 127.874 180.856 127.453 179.996L126.817 184.999C126.804 185.214 126.804 185.429 126.817 185.644C126.817 185.816 126.98 185.859 127.126 185.885C127.281 185.922 127.44 185.942 127.599 185.945C127.78 185.945 128.012 186.048 128.012 186.255C128.012 186.461 127.72 186.598 127.487 186.598C126.972 186.598 126.456 186.547 125.949 186.547C125.441 186.547 124.986 186.598 124.504 186.598C124.281 186.598 124.066 186.512 124.066 186.255C124.066 185.997 124.29 185.945 124.47 185.945C124.613 185.954 124.757 185.954 124.9 185.945C125.209 185.945 125.304 185.257 125.338 185.008L126.782 175.827C126.782 175.595 126.972 175.311 127.238 175.311C127.505 175.311 127.711 175.603 127.84 175.853L131.588 183.383L131.579 183.4ZM150.698 183.091H147.26L146.486 184.974C146.378 185.225 146.312 185.492 146.288 185.764C146.288 185.997 146.503 185.988 146.692 185.988H146.907C147.122 185.988 147.294 186.083 147.294 186.315C147.294 186.547 147.105 186.641 146.89 186.641C146.348 186.641 145.807 186.59 145.265 186.59C144.724 186.59 144.139 186.641 143.546 186.641C143.322 186.641 143.107 186.581 143.107 186.315C143.106 186.271 143.114 186.227 143.131 186.186C143.147 186.145 143.172 186.108 143.203 186.078C143.235 186.047 143.273 186.023 143.314 186.008C143.355 185.992 143.399 185.986 143.443 185.988H143.864C144.492 185.893 144.724 185.395 144.921 184.853L148.73 175.999C148.833 175.749 149.005 175.328 149.323 175.328C149.641 175.328 149.778 175.603 149.916 175.878C151.188 178.741 152.357 181.673 153.621 184.544C153.827 185.008 154.189 185.825 154.739 185.962C154.91 185.975 155.083 185.975 155.255 185.962C155.301 185.956 155.348 185.96 155.393 185.974C155.437 185.987 155.479 186.01 155.514 186.041C155.549 186.072 155.577 186.11 155.596 186.153C155.615 186.196 155.625 186.242 155.624 186.289C155.624 186.667 155.074 186.616 154.816 186.616C153.888 186.616 152.951 186.616 152.014 186.616C151.807 186.616 151.42 186.616 151.42 186.323C151.42 186.031 151.558 186.022 151.747 185.997C151.747 185.997 151.747 185.945 151.747 185.928L150.621 183.1L150.698 183.091ZM147.75 181.965H150.234L149.013 178.775L147.75 181.965ZM170.238 183.332L170.101 177.426C170.101 177.065 170.101 176.497 169.714 176.343C169.486 176.285 169.252 176.262 169.018 176.274C168.803 176.274 168.614 176.188 168.614 175.947C168.614 175.706 168.932 175.638 169.147 175.638C169.766 175.638 170.384 175.638 171.003 175.638C171.476 175.638 171.958 175.638 172.431 175.638C172.646 175.638 172.938 175.638 172.938 175.947C172.938 176.257 172.714 176.274 172.516 176.274C172.383 176.252 172.246 176.252 172.112 176.274C171.683 176.403 171.717 176.893 171.708 177.262L171.545 186.143C171.545 186.392 171.459 186.762 171.141 186.762C170.864 186.747 170.605 186.623 170.419 186.418C168.983 185.085 167.573 183.718 166.164 182.36C165.416 181.638 164.685 180.89 163.971 180.134C163.671 179.824 163.335 179.437 163.017 179.119L163.172 184.492C163.172 184.784 163.172 185.73 163.542 185.859C163.771 185.922 164.009 185.951 164.247 185.945C164.453 185.945 164.676 186.04 164.676 186.272C164.676 186.504 164.384 186.598 164.169 186.598C163.533 186.598 162.906 186.547 162.287 186.547C161.668 186.547 161.238 186.598 160.713 186.598C160.481 186.598 160.206 186.598 160.206 186.272C160.217 186.175 160.266 186.087 160.341 186.025C160.417 185.964 160.513 185.935 160.61 185.945C160.818 185.951 161.026 185.931 161.229 185.885C161.607 185.79 161.539 184.63 161.547 184.346L161.676 176.007C161.676 175.741 161.771 175.354 162.097 175.354C162.424 175.354 162.665 175.681 162.854 175.861C164.35 177.357 165.828 178.87 167.333 180.349L168.648 181.664C169.164 182.188 169.705 182.764 170.238 183.289V183.332ZM185.025 183.091H181.629L180.855 184.974C180.748 185.225 180.681 185.492 180.657 185.764C180.657 185.997 180.872 185.988 181.062 185.988H181.277C181.491 185.988 181.663 186.083 181.663 186.315C181.663 186.547 181.474 186.641 181.259 186.641C180.718 186.641 180.176 186.59 179.634 186.59C179.093 186.59 178.508 186.641 177.915 186.641C177.692 186.641 177.477 186.581 177.477 186.315C177.475 186.271 177.483 186.227 177.5 186.186C177.516 186.145 177.541 186.108 177.573 186.078C177.604 186.047 177.642 186.023 177.683 186.008C177.724 185.992 177.768 185.986 177.812 185.988H178.233C178.861 185.893 179.093 185.395 179.291 184.853L183.099 175.999C183.202 175.749 183.365 175.328 183.692 175.328C184.019 175.328 184.148 175.603 184.285 175.878C185.558 178.741 186.727 181.673 187.99 184.544C188.197 185.008 188.558 185.825 189.108 185.962C189.28 185.975 189.452 185.975 189.624 185.962C189.67 185.956 189.717 185.96 189.762 185.974C189.807 185.987 189.848 186.01 189.883 186.041C189.918 186.072 189.946 186.11 189.965 186.153C189.984 186.196 189.994 186.242 189.993 186.289C189.993 186.667 189.443 186.616 189.185 186.616C188.257 186.616 187.32 186.616 186.383 186.616C186.177 186.616 185.781 186.616 185.781 186.323C185.781 186.031 185.927 186.022 186.116 185.997C186.116 185.997 186.116 185.945 186.116 185.928L184.99 183.1L185.025 183.091ZM182.076 181.965H184.56L183.34 178.775L182.076 181.965ZM205.459 183.968V185.524C205.459 185.85 205.459 186.014 205.175 186.186C204.021 186.65 202.782 186.87 201.539 186.83C197.919 186.83 194.661 185.171 194.661 181.139C194.64 180.184 194.874 179.241 195.338 178.405C195.801 177.57 196.479 176.873 197.301 176.386C198.524 175.701 199.915 175.376 201.315 175.449C202.181 175.444 203.044 175.525 203.894 175.689C204.272 175.76 204.654 175.809 205.037 175.835C205.252 175.835 205.39 175.947 205.39 176.171C205.39 176.394 205.39 176.566 205.347 176.738C205.347 177.323 205.295 177.907 205.295 178.457C205.295 178.689 205.192 178.947 204.917 178.947C204.642 178.947 204.625 178.801 204.599 178.604C204.574 178.213 204.416 177.843 204.152 177.555C203.297 176.853 202.214 176.489 201.109 176.532C200.143 176.443 199.179 176.723 198.41 177.314C197.96 177.729 197.61 178.242 197.388 178.812C197.166 179.383 197.078 179.996 197.129 180.606C197.129 183.555 199.02 185.67 202.02 185.67C202.344 185.694 202.67 185.647 202.974 185.532C203.129 185.464 203.155 185.36 203.155 185.197V183.908C203.155 183.357 203.155 182.799 203.155 182.257C203.155 181.844 203.034 181.767 202.656 181.655C202.485 181.638 202.312 181.638 202.14 181.655C202.044 181.665 201.947 181.636 201.871 181.575C201.796 181.514 201.747 181.425 201.736 181.329C201.736 181.054 202.011 181.028 202.218 181.028C202.966 181.028 203.714 181.028 204.453 181.028C205.029 181.028 205.596 181.028 206.172 181.028C206.387 181.028 206.645 181.028 206.645 181.329C206.643 181.374 206.632 181.418 206.612 181.459C206.593 181.5 206.566 181.537 206.532 181.567C206.499 181.597 206.46 181.621 206.417 181.636C206.374 181.651 206.329 181.658 206.284 181.655C206.161 181.647 206.037 181.647 205.914 181.655C205.562 181.716 205.51 181.913 205.502 182.257C205.502 182.816 205.502 183.375 205.502 183.976L205.459 183.968ZM216.454 176.807V180.245C217.228 180.245 218.173 180.288 218.912 180.245C219.118 180.252 219.322 180.199 219.497 180.091C219.6 180.005 219.686 179.867 219.841 179.867C219.882 179.869 219.921 179.88 219.958 179.897C219.995 179.915 220.028 179.94 220.055 179.97C220.082 180 220.103 180.036 220.116 180.074C220.13 180.112 220.136 180.153 220.133 180.194C220.133 180.486 220.047 180.933 220.013 181.234C219.973 181.542 219.95 181.852 219.944 182.163C219.944 182.369 219.884 182.652 219.626 182.652C219.587 182.657 219.548 182.654 219.51 182.642C219.473 182.631 219.438 182.611 219.409 182.585C219.379 182.559 219.356 182.527 219.34 182.491C219.324 182.455 219.316 182.417 219.317 182.377C219.317 182.205 219.317 182.051 219.317 181.887C219.222 181.569 218.973 181.501 218.655 181.475C217.931 181.413 217.205 181.39 216.48 181.406V182.506C216.48 183.194 216.48 183.899 216.48 184.587C216.523 185.67 217.382 185.593 218.276 185.593C218.718 185.616 219.161 185.561 219.583 185.429C219.953 185.266 220.039 184.888 220.107 184.509C220.107 184.32 220.228 184.157 220.443 184.157C220.657 184.157 220.752 184.458 220.752 184.664C220.735 185.203 220.666 185.738 220.546 186.263C220.4 186.796 220.073 186.753 219.6 186.753C218.74 186.753 217.804 186.753 216.909 186.753C216.351 186.753 215.792 186.753 215.233 186.753H214.374C214.038 186.753 213.694 186.753 213.359 186.753C213.024 186.753 212.903 186.676 212.903 186.426C212.903 186.177 213.11 186.1 213.307 186.1C213.464 186.117 213.623 186.117 213.78 186.1C214.029 186.048 214.055 185.713 214.081 185.507C214.153 184.517 214.173 183.524 214.141 182.532V180.048C214.141 179.059 214.141 178.053 214.141 177.073C214.141 176.669 214.03 176.583 213.643 176.472C213.466 176.45 213.287 176.45 213.11 176.472C212.903 176.472 212.688 176.386 212.688 176.145C212.688 175.904 212.981 175.835 213.187 175.835C213.892 175.835 214.597 175.835 215.293 175.835H217.262C217.907 175.835 218.629 175.835 219.256 175.835C219.463 175.835 219.652 175.784 219.849 175.758C219.935 175.725 220.025 175.702 220.116 175.689C220.155 175.689 220.194 175.697 220.23 175.713C220.266 175.729 220.298 175.752 220.324 175.782C220.35 175.811 220.369 175.845 220.381 175.883C220.392 175.92 220.396 175.96 220.391 175.999C220.382 176.094 220.364 176.189 220.34 176.282C220.299 176.495 220.276 176.711 220.271 176.927C220.271 177.228 220.271 177.581 220.185 177.873C220.099 178.165 220.064 178.242 219.849 178.242C219.635 178.242 219.557 178.079 219.557 177.881C219.558 177.731 219.529 177.582 219.471 177.443C219.308 177.091 219.041 177.065 218.612 177.03C218.182 176.996 217.829 177.03 217.485 177.03H216.428L216.454 176.807ZM234.008 183.409L237.765 175.784C237.868 175.569 238.04 175.337 238.298 175.337C238.556 175.337 238.762 175.681 238.805 175.93L240.129 184.621C240.189 185.025 240.249 185.739 240.722 185.876C240.973 185.951 241.234 185.992 241.496 185.997C241.685 185.997 241.908 186.091 241.908 186.306C241.908 186.521 241.564 186.65 241.35 186.65C240.361 186.65 239.312 186.598 238.324 186.547C238.109 186.547 237.73 186.547 237.73 186.203C237.736 186.136 237.763 186.072 237.806 186.02C237.849 185.967 237.906 185.929 237.971 185.911C237.989 185.768 237.989 185.624 237.971 185.481L237.223 179.876L234.309 185.739C234.171 186.014 233.948 186.598 233.578 186.598C233.209 186.598 232.977 186.048 232.839 185.79L231.979 184.26C231.704 183.736 231.343 183.125 231.12 182.584C230.75 181.724 230.303 180.864 229.882 180.005L229.254 185.008C229.22 185.221 229.202 185.437 229.203 185.653C229.203 185.825 229.366 185.868 229.512 185.893C229.667 185.93 229.826 185.951 229.985 185.954C230.165 185.954 230.398 186.057 230.398 186.263C230.398 186.469 230.105 186.607 229.873 186.607C229.357 186.607 228.842 186.555 228.334 186.555C227.827 186.555 227.371 186.607 226.89 186.607C226.675 186.607 226.452 186.521 226.452 186.263C226.452 186.005 226.675 185.954 226.856 185.954C226.999 185.962 227.142 185.962 227.285 185.954C227.595 185.954 227.698 185.266 227.732 185.017L229.168 175.835C229.168 175.603 229.357 175.32 229.624 175.32C229.89 175.32 230.097 175.612 230.226 175.861L233.974 183.392L234.008 183.409ZM251.201 176.807V180.245C251.975 180.245 252.921 180.288 253.66 180.245C253.866 180.252 254.069 180.199 254.245 180.091C254.348 180.005 254.434 179.867 254.588 179.867C254.629 179.869 254.669 179.88 254.706 179.897C254.742 179.915 254.775 179.94 254.802 179.97C254.83 180 254.85 180.036 254.864 180.074C254.877 180.112 254.883 180.153 254.881 180.194C254.881 180.486 254.795 180.933 254.76 181.234C254.72 181.542 254.697 181.852 254.692 182.163C254.692 182.369 254.631 182.652 254.373 182.652C254.334 182.657 254.295 182.654 254.258 182.642C254.22 182.631 254.186 182.611 254.156 182.585C254.127 182.559 254.104 182.527 254.088 182.491C254.072 182.455 254.064 182.417 254.064 182.377C254.064 182.205 254.064 182.051 254.021 181.887C253.926 181.569 253.677 181.501 253.359 181.475C252.636 181.413 251.91 181.39 251.184 181.406V182.506C251.184 183.194 251.184 183.899 251.184 184.587C251.227 185.67 252.087 185.593 252.981 185.593C253.423 185.616 253.865 185.561 254.288 185.429C254.657 185.266 254.743 184.888 254.812 184.509C254.855 184.32 254.932 184.157 255.147 184.157C255.362 184.157 255.457 184.458 255.457 184.664C255.44 185.203 255.371 185.738 255.25 186.263C255.104 186.796 254.778 186.753 254.305 186.753C253.445 186.753 252.508 186.753 251.614 186.753C251.055 186.753 250.496 186.753 249.938 186.753H249.078C248.743 186.753 248.399 186.753 248.064 186.753C247.728 186.753 247.608 186.676 247.608 186.426C247.608 186.177 247.814 186.1 248.012 186.1C248.169 186.117 248.328 186.117 248.485 186.1C248.734 186.048 248.76 185.713 248.786 185.507C248.857 184.517 248.877 183.524 248.846 182.532V180.048C248.846 179.059 248.846 178.053 248.846 177.073C248.846 176.669 248.734 176.583 248.347 176.472C248.17 176.45 247.991 176.45 247.814 176.472C247.608 176.472 247.393 176.386 247.393 176.145C247.393 175.904 247.685 175.835 247.892 175.835C248.597 175.835 249.301 175.835 249.998 175.835H251.966C252.611 175.835 253.333 175.835 253.961 175.835C254.167 175.835 254.356 175.784 254.554 175.758C254.64 175.725 254.729 175.702 254.82 175.689C254.86 175.689 254.899 175.697 254.934 175.713C254.97 175.729 255.002 175.752 255.028 175.782C255.054 175.811 255.074 175.845 255.085 175.883C255.097 175.92 255.1 175.96 255.096 175.999C255.086 176.094 255.069 176.189 255.044 176.282C255.003 176.495 254.98 176.711 254.975 176.927C254.975 177.228 254.975 177.581 254.889 177.873C254.803 178.165 254.769 178.242 254.554 178.242C254.339 178.242 254.262 178.079 254.262 177.881C254.263 177.731 254.234 177.582 254.176 177.443C254.012 177.091 253.746 177.065 253.316 177.03C252.886 176.996 252.534 177.03 252.19 177.03H251.132L251.201 176.807ZM264.509 179.171L264.664 184.544C264.664 184.836 264.664 185.782 265.042 185.911C265.271 185.974 265.509 186.003 265.747 185.997C265.944 185.997 266.168 186.091 266.168 186.323C266.168 186.555 265.876 186.65 265.661 186.65C265.033 186.65 264.397 186.598 263.778 186.598C263.159 186.598 262.729 186.65 262.205 186.65C261.981 186.65 261.698 186.65 261.698 186.323C261.709 186.227 261.757 186.138 261.833 186.077C261.908 186.016 262.005 185.987 262.102 185.997C262.31 186.003 262.518 185.982 262.721 185.936C263.108 185.842 263.03 184.681 263.039 184.398L263.168 176.059C263.168 175.792 263.262 175.406 263.598 175.406C263.933 175.406 264.156 175.732 264.346 175.913C265.841 177.409 267.32 178.922 268.833 180.4L270.14 181.715C270.664 182.24 271.197 182.816 271.739 183.34L271.592 177.434C271.592 177.073 271.592 176.506 271.206 176.351C270.978 176.293 270.743 176.27 270.509 176.282C270.303 176.282 270.105 176.196 270.105 175.956C270.105 175.715 270.432 175.646 270.647 175.646C271.266 175.646 271.885 175.646 272.504 175.646C272.968 175.646 273.449 175.646 273.922 175.646C274.137 175.646 274.429 175.646 274.429 175.956C274.429 176.265 274.206 176.282 274.008 176.282C273.877 176.261 273.744 176.261 273.613 176.282C273.174 176.411 273.209 176.901 273.209 177.271L273.037 186.151C273.037 186.401 272.951 186.77 272.633 186.77C272.356 186.754 272.098 186.63 271.911 186.426C270.475 185.094 269.074 183.727 267.664 182.369C266.907 181.647 266.185 180.899 265.463 180.142C265.162 179.833 264.835 179.446 264.509 179.128V179.171ZM284.281 176.867L282.287 176.919C281.909 176.919 281.264 176.919 281.014 177.28C280.915 177.405 280.839 177.548 280.791 177.701C280.748 177.873 280.662 178.01 280.464 178.01C280.266 178.01 280.155 177.804 280.155 177.606C280.213 177.025 280.32 176.45 280.473 175.887C280.473 175.706 280.584 175.483 280.808 175.483C281.031 175.483 281.272 175.629 281.461 175.655C281.938 175.704 282.418 175.727 282.897 175.724H288.803C289.125 175.727 289.447 175.703 289.766 175.655C289.908 175.624 290.051 175.601 290.196 175.586C290.471 175.586 290.488 175.853 290.488 176.059C290.488 176.626 290.488 177.202 290.488 177.778C290.488 177.959 290.402 178.165 290.178 178.165C289.955 178.165 289.852 177.95 289.834 177.727V177.58C289.783 177.004 288.683 176.936 288.287 176.927H286.628V182.446C286.605 183.444 286.634 184.443 286.714 185.438C286.714 185.747 286.783 185.954 287.127 186.014C287.367 186.031 287.608 186.031 287.849 186.014C287.897 186.008 287.946 186.012 287.992 186.025C288.039 186.038 288.082 186.061 288.12 186.091C288.158 186.122 288.189 186.16 288.212 186.202C288.235 186.245 288.249 186.292 288.253 186.34C288.253 186.59 288.003 186.667 287.797 186.667C287.015 186.667 286.224 186.616 285.45 186.616C284.814 186.616 284.178 186.667 283.542 186.667C283.336 186.667 283.086 186.59 283.086 186.34C283.086 186.091 283.292 186.014 283.49 186.014C283.65 186.035 283.812 186.035 283.972 186.014C284.212 185.962 284.238 185.627 284.264 185.421C284.338 184.431 284.361 183.438 284.333 182.446V176.927L284.281 176.867Z" fill="#F0F0F0"></path>
  </g>
  <defs>
    <clipPath id="clip0_1234_1221">
      <rect width="309.478" height="210.067" fill="white"></rect>
    </clipPath>
  </defs>
</svg>
