<?xml version="1.0" encoding="UTF-8"?>
<svg xmlns="http://www.w3.org/2000/svg" width="201" height="60" viewBox="0 0 201 60" fill="none">
  <g clip-path="url(#clip0_1234_1151)">
    <path fill-rule="evenodd" clip-rule="evenodd" d="M33.3662 4.26538L38.973 7.50051L51.9617 15.001V30.0019V45.0028L38.973 52.5033L33.3662 55.7384V51.4731V50.0538V34.5674V29.6758V27.3412V26.5592L35.8268 25.1399L38.2875 26.5592V27.3412V32.5181V34.5674V47.2115L47.0405 42.1605V30.0019V17.8433L36.5087 11.7658L33.3662 9.94631V4.26538Z" fill="white"></path>
    <path fill-rule="evenodd" clip-rule="evenodd" d="M10.5762 20.6263H23.5204V52.8961V55.0491V58.5807L25.981 60L28.4417 58.5807V55.0491V52.8961V20.6263H41.3896V17.7728L37.8024 15.705H28.4417V2.20122V1.41931L25.981 0L23.5204 1.41931V2.20122V15.705H14.1596L10.5762 17.7728V20.6263Z" fill="#D99227"></path>
    <path fill-rule="evenodd" clip-rule="evenodd" d="M18.5955 4.26538L12.9924 7.50051L0 15.001V30.0019V45.0028L12.9924 52.5033L18.5955 55.7384V51.4731V50.0538V34.5674V29.6758V27.3412V26.5592L16.1349 25.1399L13.6743 26.5592V27.3412V32.5181V34.5674V47.2115L4.92496 42.1605V30.0019V17.8433L15.453 11.7658L18.5955 9.94631V4.26538Z" fill="white"></path>
    <path fill-rule="evenodd" clip-rule="evenodd" d="M101.167 45.0436H59.6328V43.5316H111.636V45.0436H101.167ZM108.897 41.3712V42.4236H112.762V46.1553H108.886V47.6673H150.761V46.1553H146.907V42.4236H150.769V40.908H108.894V41.3712H108.897ZM158.514 45.0436H199.818V43.5316H148.019V45.0436H158.514Z" fill="#D99227"></path>
    <path fill-rule="evenodd" clip-rule="evenodd" d="M59.6331 24.0874C59.6331 23.8577 59.7146 23.5316 60.0036 23.5316C60.2927 23.5316 60.3409 23.7428 60.3409 23.9577C60.3495 24.1975 60.3932 24.4347 60.4706 24.6618C60.7633 25.629 61.7898 25.9774 62.694 25.9774C63.7168 25.9774 64.6099 25.3882 64.6099 24.3024C64.6099 23.3352 63.991 22.8571 63.2017 22.3939L62.3383 21.864C60.9449 21.045 59.8739 20.0926 59.8739 18.3843C59.8739 16.2609 62.0047 15.2566 63.8799 15.2566C64.6197 15.2504 65.3576 15.3338 66.0774 15.5049C66.2664 15.5531 66.4183 15.6568 66.4183 15.8755C66.4183 16.0941 66.4183 16.246 66.3924 16.398C66.3924 16.8093 66.3701 17.2207 66.3701 17.6283C66.3701 17.8729 66.322 18.2768 65.9996 18.2768C65.7476 18.2768 65.6623 18.0545 65.6623 17.8358C65.6299 17.5213 65.5004 17.2247 65.2918 16.9872C65.0972 16.7744 64.8573 16.608 64.5899 16.5003C64.3224 16.3925 64.0342 16.3462 63.7465 16.3646C62.909 16.3646 61.8639 16.7686 61.8639 17.7506C61.8621 17.8511 61.8696 17.9516 61.8862 18.0507C62.0122 18.74 62.8126 19.2106 63.3685 19.5331L63.9873 19.8777C65.4696 20.7078 66.6962 21.7602 66.6962 23.5835C66.6962 24.8545 66.1367 25.7402 65.1065 26.4702C64.3653 26.9965 63.3574 27.1039 62.468 27.1039C61.6056 27.1382 60.7448 27.0048 59.9332 26.7111C59.596 26.5629 59.5293 26.4072 59.5293 26.0441C59.5293 25.3919 59.5701 24.7396 59.6182 24.0911L59.6331 24.0874ZM79.8591 27.1002C78.0062 27.1002 76.2312 26.5518 74.9712 25.151C74.0076 24.0621 73.4756 22.6584 73.4756 21.2044C73.4756 19.7503 74.0076 18.3466 74.9712 17.2577C76.2719 15.8199 78.1137 15.2677 80.011 15.2677C83.5501 15.2677 86.3924 17.1428 86.3924 20.9264C86.3924 24.71 83.5278 27.1039 79.8591 27.1039V27.1002ZM98.2286 23.5909C98.6696 22.5644 99.092 21.5342 99.5182 20.504C100.03 19.2625 100.571 18.0026 101.041 16.7463C101.103 16.5953 101.145 16.4372 101.167 16.2757C101.169 16.2609 101.169 16.246 101.167 16.2312C101.143 16.2146 101.117 16.2009 101.089 16.1905C100.911 16.1483 100.728 16.1284 100.545 16.1312C100.341 16.1312 100.104 16.0348 100.104 15.7939C100.104 15.4827 100.497 15.4752 100.719 15.4752C101.26 15.4752 101.801 15.5086 102.338 15.5086C102.813 15.5086 103.291 15.4752 103.765 15.4752C103.976 15.4752 104.258 15.5271 104.258 15.7939C104.258 16.0608 104.05 16.1312 103.835 16.1312C103.615 16.1067 103.392 16.1548 103.202 16.2683C102.871 16.6176 102.619 17.0332 102.461 17.4875C101.882 18.8215 101.238 20.126 100.634 21.4489C99.9518 22.9312 99.2958 24.4395 98.6177 25.9292C98.4806 26.2294 98.1841 27.0409 97.8098 27.0928C97.7828 27.0965 97.7553 27.0965 97.7283 27.0928C97.2984 27.0928 97.0798 26.4258 96.939 26.1034L93.122 17.1614C92.8663 16.5684 92.7515 16.3387 92.1289 16.183C91.9497 16.1466 91.767 16.1305 91.5841 16.1349C91.5367 16.1421 91.4882 16.1387 91.4422 16.1248C91.3962 16.1109 91.354 16.0869 91.3184 16.0546C91.2829 16.0223 91.2551 15.9825 91.2369 15.938C91.2188 15.8935 91.2108 15.8456 91.2136 15.7976C91.2136 15.4975 91.5545 15.4789 91.7768 15.4789C92.518 15.4789 93.2591 15.5123 94.0003 15.5123C94.6414 15.5123 95.2862 15.4789 95.9273 15.4789C96.1348 15.4789 96.472 15.5234 96.472 15.7976C96.472 16.0719 96.2571 16.1349 96.0496 16.1349C95.8843 16.1241 95.7187 16.1493 95.5641 16.209C95.539 16.2222 95.5185 16.2428 95.5053 16.2679C95.4921 16.293 95.4867 16.3216 95.49 16.3498C95.5594 16.7077 95.6714 17.0561 95.8235 17.3874L98.2323 23.5946L98.2286 23.5909ZM116.591 15.4382C116.678 15.4009 116.77 15.3759 116.865 15.3641C116.905 15.3643 116.946 15.3731 116.983 15.3899C117.02 15.4067 117.053 15.4311 117.08 15.4615C117.106 15.492 117.127 15.5277 117.139 15.5665C117.151 15.6052 117.155 15.6461 117.15 15.6865C117.142 15.7854 117.124 15.8834 117.098 15.9792C117.06 16.1985 117.036 16.4201 117.028 16.6426C116.995 16.9538 117.002 17.317 116.939 17.632C116.891 17.8099 116.813 18.0026 116.587 18.0026C116.361 18.0026 116.283 17.8284 116.283 17.632C116.286 17.4758 116.257 17.3207 116.198 17.1762C116.027 16.8056 115.746 16.7834 115.342 16.7463C114.938 16.7093 114.523 16.7093 114.167 16.7018L113.055 16.6796V20.2223H114.3C114.712 20.2223 115.201 20.2223 115.609 20.1927C115.768 20.1927 116.098 20.1593 116.213 20.0296C116.32 19.937 116.413 19.7999 116.583 19.7999C116.625 19.8018 116.667 19.812 116.705 19.83C116.743 19.8481 116.777 19.8735 116.806 19.9049C116.834 19.9363 116.856 19.973 116.87 20.0128C116.884 20.0527 116.89 20.0949 116.887 20.1371C116.883 20.2401 116.873 20.3427 116.857 20.4447C116.828 20.7041 116.794 20.9635 116.765 21.2229C116.726 21.5427 116.704 21.8643 116.698 22.1864C116.698 22.4013 116.635 22.6941 116.357 22.6941C116.317 22.6971 116.276 22.6918 116.238 22.6785C116.199 22.6652 116.164 22.6442 116.134 22.6168C116.104 22.5893 116.081 22.556 116.064 22.519C116.048 22.4819 116.039 22.4419 116.038 22.4013C116.02 22.2346 116.02 22.0678 115.99 21.901C115.89 21.5749 115.62 21.5008 115.305 21.4712C114.99 21.4415 114.486 21.4341 114.115 21.423C113.745 21.4119 113.404 21.4045 113.048 21.4045V22.531C113.048 23.2462 113.018 23.98 113.048 24.6952C113.04 24.9427 113.11 25.1864 113.248 25.3919C113.559 25.7624 114.486 25.7402 114.916 25.7402C115.375 25.7649 115.834 25.7059 116.272 25.566C116.661 25.3956 116.754 25.0065 116.82 24.6099C116.865 24.4172 116.943 24.2394 117.172 24.2394C117.402 24.2394 117.491 24.5544 117.491 24.7656C117.477 25.3272 117.406 25.8859 117.28 26.4332C117.128 26.9853 116.787 26.9483 116.294 26.9483C115.36 26.9483 114.441 26.9483 113.5 26.8964C112.918 26.8964 112.333 26.8593 111.747 26.8593C111.462 26.8593 111.177 26.8779 110.895 26.8779C110.543 26.8779 110.187 26.9112 109.835 26.9112C109.62 26.9112 109.361 26.8371 109.361 26.574C109.361 26.3109 109.576 26.2368 109.783 26.2368C109.95 26.241 110.117 26.2248 110.28 26.1886C110.535 26.133 110.561 25.7847 110.584 25.5734C110.626 25.1511 110.645 24.7268 110.643 24.3024C110.643 23.6946 110.643 23.0869 110.643 22.4754V19.8814C110.643 18.8586 110.661 17.8136 110.643 16.7945C110.613 16.372 110.524 16.2831 110.12 16.1645C109.938 16.1309 109.753 16.116 109.568 16.12C109.357 16.12 109.127 16.0274 109.127 15.7828C109.127 15.5382 109.439 15.4641 109.653 15.4641C110.395 15.4641 111.114 15.4975 111.84 15.4975H113.889H115.249C115.483 15.4975 115.742 15.4975 115.99 15.4975C116.239 15.4975 116.398 15.4456 116.605 15.4159L116.591 15.4382ZM131.277 21.5675C131.84 22.2642 132.388 22.9609 132.981 23.6464C133.456 24.2134 133.948 24.7804 134.464 25.3029C134.866 25.7615 135.405 26.0796 136.001 26.2108C136.107 26.2334 136.216 26.2433 136.324 26.2405C136.417 26.2401 136.506 26.2745 136.575 26.337C136.643 26.3994 136.686 26.4853 136.694 26.5777C136.694 26.8556 136.446 26.9149 136.22 26.9149H134.771C134.176 26.9543 133.581 26.8475 133.037 26.6036C132.21 26.1849 131.451 25.1213 130.906 24.3802L130.606 23.9726L129.913 22.9831C129.779 22.7941 129.635 22.5718 129.49 22.3976C129.47 22.3799 129.447 22.3668 129.421 22.3592C129.396 22.3515 129.369 22.3494 129.342 22.3531L128.049 22.3198V22.4606C128.049 23.0721 128.049 23.6835 128.049 24.3135C128.049 24.7285 128.067 25.1621 128.116 25.5771C128.153 25.9107 128.175 26.133 128.545 26.1923C128.782 26.2249 129.021 26.241 129.261 26.2405C129.353 26.2401 129.443 26.2745 129.512 26.337C129.58 26.3994 129.623 26.4853 129.631 26.5777C129.631 26.8445 129.353 26.9149 129.138 26.9149C128.353 26.9149 127.563 26.863 126.781 26.863C126.163 26.863 125.54 26.9149 124.929 26.9149C124.71 26.9149 124.454 26.8408 124.454 26.5777C124.454 26.3146 124.669 26.2405 124.877 26.2405C125.042 26.2447 125.208 26.2285 125.37 26.1923C125.625 26.1367 125.651 25.7884 125.677 25.5771C125.725 25.1621 125.729 24.7248 125.736 24.3061C125.736 23.6983 125.736 23.0906 125.736 22.4791V19.8851C125.736 18.8623 125.759 17.8173 125.736 16.7982C125.707 16.3757 125.618 16.2868 125.214 16.1682C125.032 16.133 124.847 16.1181 124.662 16.1237C124.451 16.1237 124.221 16.0311 124.221 15.7865C124.221 15.5419 124.528 15.4678 124.747 15.4678C125.436 15.4678 126.126 15.5012 126.811 15.5012C127.6 15.5012 128.386 15.4678 129.172 15.4678C130.165 15.4678 131.303 15.5531 132.136 16.1163C132.484 16.3624 132.769 16.6868 132.969 17.0634C133.169 17.44 133.277 17.8581 133.285 18.2842C133.285 19.6739 132.27 20.7189 131.262 21.549L131.277 21.5675ZM148.653 15.4382C148.741 15.4014 148.833 15.3764 148.927 15.3641C148.968 15.3643 149.008 15.3731 149.045 15.3899C149.082 15.4067 149.115 15.4311 149.142 15.4615C149.169 15.492 149.189 15.5277 149.201 15.5665C149.213 15.6052 149.217 15.6461 149.212 15.6865C149.204 15.7854 149.186 15.8834 149.161 15.9792C149.126 16.199 149.102 16.4204 149.09 16.6426C149.057 16.9538 149.064 17.317 149.001 17.632C148.957 17.8099 148.875 18.0026 148.649 18.0026C148.423 18.0026 148.349 17.8284 148.349 17.632C148.351 17.4756 148.32 17.3205 148.26 17.1762C148.09 16.8056 147.808 16.7834 147.404 16.7463C147.056 16.7018 146.589 16.7093 146.229 16.7018C145.87 16.6944 145.488 16.6833 145.118 16.6796V20.2223H146.378C146.789 20.2223 147.278 20.2223 147.686 20.1927C147.845 20.1927 148.175 20.1593 148.29 20.0296C148.397 19.937 148.49 19.7999 148.66 19.7999C148.702 19.8018 148.744 19.812 148.782 19.83C148.82 19.8481 148.854 19.8735 148.883 19.9049C148.911 19.9363 148.933 19.973 148.947 20.0128C148.961 20.0527 148.967 20.0949 148.964 20.1371C148.96 20.2401 148.95 20.3427 148.935 20.4447C148.905 20.7041 148.872 20.9635 148.842 21.2229C148.803 21.5427 148.781 21.8643 148.775 22.1864C148.775 22.4013 148.712 22.6941 148.438 22.6941C148.397 22.6971 148.356 22.6918 148.318 22.6786C148.279 22.6653 148.244 22.6443 148.214 22.617C148.184 22.5896 148.159 22.5563 148.143 22.5192C148.126 22.4822 148.116 22.442 148.116 22.4013C148.116 22.2346 148.116 22.0678 148.071 21.901C147.971 21.5749 147.701 21.5008 147.382 21.4712C147.063 21.4415 146.563 21.4341 146.192 21.423C145.822 21.4119 145.481 21.4045 145.125 21.4045V22.531C145.125 23.2462 145.099 23.98 145.125 24.6952C145.114 24.9425 145.183 25.1869 145.321 25.3919C145.633 25.7624 146.559 25.7402 146.989 25.7402C147.448 25.7652 147.908 25.7061 148.345 25.566C148.734 25.3956 148.827 25.0065 148.897 24.6099C148.938 24.4172 149.016 24.2394 149.246 24.2394C149.476 24.2394 149.568 24.5544 149.568 24.7656C149.553 25.3273 149.481 25.886 149.353 26.4332C149.205 26.9853 148.864 26.9483 148.368 26.9483C147.437 26.9483 146.515 26.9483 145.573 26.8964C144.992 26.8964 144.406 26.8593 143.821 26.8593C143.535 26.8593 143.25 26.8779 142.968 26.8779C142.616 26.8779 142.264 26.9112 141.912 26.9112C141.693 26.9112 141.434 26.8371 141.434 26.574C141.434 26.3109 141.653 26.2368 141.86 26.2368C142.026 26.241 142.191 26.2248 142.353 26.1886C142.609 26.133 142.635 25.7847 142.661 25.5734C142.705 25.1584 142.713 24.7211 142.72 24.3024C142.72 23.6946 142.72 23.0869 142.72 22.4754V19.8814C142.72 18.8586 142.738 17.8136 142.701 16.7945C142.672 16.372 142.583 16.2831 142.179 16.1645C141.997 16.129 141.812 16.1141 141.627 16.12C141.416 16.12 141.186 16.0274 141.186 15.7828C141.186 15.5382 141.497 15.4641 141.712 15.4641C142.453 15.4641 143.172 15.4975 143.902 15.4975H145.948H147.297C147.53 15.4975 147.789 15.4975 148.038 15.4975C148.286 15.4975 148.445 15.4456 148.653 15.4159V15.4382ZM157.447 26.1849C157.71 26.1256 157.725 25.8699 157.751 25.6364C157.799 25.2251 157.802 24.7804 157.81 24.3654C157.81 23.7354 157.81 23.1054 157.81 22.4717V19.8777C157.81 18.8549 157.832 17.8099 157.81 16.7908C157.788 16.4684 157.739 16.2794 157.421 16.1793C157.259 16.1345 157.092 16.1133 156.924 16.1163C156.691 16.1163 156.502 16.0237 156.502 15.7643C156.502 15.5049 156.839 15.4604 157.043 15.4604C157.721 15.4604 158.399 15.4938 159.077 15.4938C159.755 15.4938 160.374 15.4604 161.023 15.4604C161.223 15.4604 161.516 15.5049 161.516 15.7643C161.516 16.0237 161.327 16.1163 161.089 16.1163C160.95 16.1192 160.811 16.1366 160.674 16.1682C160.304 16.2275 160.282 16.4462 160.256 16.7908C160.23 17.1354 160.23 17.3763 160.23 17.6728C160.23 18.4139 160.23 19.1551 160.23 19.8777V22.4717C160.23 23.1054 160.23 23.7354 160.23 24.3691C160.23 24.7915 160.23 25.2362 160.285 25.6513C160.33 25.9811 160.389 26.1293 160.737 26.1849C160.983 26.2192 161.231 26.2353 161.479 26.2331C161.679 26.2331 161.905 26.3405 161.905 26.5703C161.905 26.8001 161.642 26.9075 161.427 26.9075C160.611 26.9075 159.796 26.8556 158.985 26.8556C158.325 26.8556 157.662 26.9075 157.002 26.9075C156.787 26.9075 156.528 26.8334 156.528 26.5703C156.528 26.3072 156.743 26.2331 156.95 26.2331C157.117 26.2371 157.284 26.2209 157.447 26.1849ZM177.977 15.5086C178.366 15.5813 178.76 15.632 179.155 15.6605C179.374 15.6828 179.526 15.7791 179.526 16.0311C179.526 16.209 179.489 16.4387 179.474 16.624C179.429 17.2244 179.422 17.8358 179.422 18.4399C179.422 18.6881 179.314 18.9512 179.033 18.9512C178.818 18.9512 178.725 18.7956 178.695 18.5992C178.677 18.1848 178.512 17.7906 178.229 17.4875C177.487 16.7241 176.083 16.4239 175.071 16.4239C173.985 16.4239 173.141 16.5314 172.259 17.2466C171.214 18.0915 170.932 19.3811 170.932 20.667C170.932 23.7317 172.896 25.9255 176.02 25.9255C176.356 25.9511 176.693 25.9044 177.009 25.7884C177.172 25.7143 177.198 25.6105 177.198 25.4363V24.0874C177.198 23.5167 177.198 22.9424 177.18 22.3717C177.18 21.9492 177.058 21.864 176.657 21.7491C176.482 21.7136 176.303 21.6987 176.124 21.7046C175.924 21.7046 175.698 21.5897 175.698 21.3674C175.698 21.0746 175.987 21.045 176.209 21.045C176.983 21.045 177.758 21.0821 178.532 21.0821C179.125 21.0821 179.715 21.045 180.307 21.045C180.53 21.045 180.8 21.0784 180.8 21.3674C180.792 21.4598 180.749 21.5457 180.681 21.6081C180.612 21.6706 180.523 21.705 180.43 21.7046C180.305 21.7088 180.181 21.725 180.059 21.7528C179.689 21.8158 179.64 22.0159 179.626 22.3717C179.626 22.9535 179.626 23.539 179.626 24.1208V25.7402C179.626 26.0774 179.655 26.2442 179.333 26.4221C178.266 26.9446 176.739 27.0928 175.549 27.0928C171.784 27.0928 168.36 25.3696 168.36 21.1636C168.339 20.1701 168.581 19.1888 169.063 18.3197C169.545 17.4506 170.249 16.7248 171.102 16.2164C172.451 15.4308 173.741 15.2455 175.275 15.2455C175.522 15.2455 175.763 15.2529 175.998 15.2677C176.668 15.2917 177.336 15.366 177.995 15.4901L177.977 15.5086ZM197.306 23.4612L197.146 17.3355C197.146 17.0724 197.146 16.4906 196.909 16.3016C196.861 16.2616 196.806 16.2303 196.746 16.209C196.505 16.1455 196.255 16.1204 196.005 16.1349C195.786 16.1349 195.579 16.0422 195.579 15.7976C195.579 15.4975 195.92 15.4789 196.142 15.4789C196.787 15.4789 197.432 15.5123 198.073 15.5123C198.562 15.5123 199.059 15.4789 199.555 15.4789C199.774 15.4789 200.081 15.5049 200.081 15.7976C200.081 16.0904 199.848 16.1349 199.64 16.1349C199.501 16.1311 199.361 16.1461 199.225 16.1793C199.145 16.1997 199.07 16.2376 199.007 16.2905C198.814 16.4647 198.81 16.9761 198.807 17.2132L198.636 26.4406C198.636 26.7037 198.544 27.0891 198.21 27.0891C198.068 27.0791 197.93 27.0412 197.803 26.9776C197.675 26.914 197.562 26.826 197.469 26.7185C195.987 25.3326 194.504 23.9096 193.048 22.4977C192.266 21.7565 191.51 20.9672 190.761 20.1853L189.942 19.3255L189.772 19.1477L189.931 24.7063C189.931 25.0028 189.954 25.9885 190.302 26.1219C190.543 26.1905 190.793 26.2218 191.043 26.2145C191.251 26.2145 191.484 26.3109 191.484 26.5518C191.484 26.7926 191.18 26.889 190.958 26.889C190.539 26.889 190.124 26.889 189.709 26.863C189.472 26.863 189.231 26.8371 188.998 26.8371C188.764 26.8371 188.627 26.8556 188.427 26.863C188.056 26.863 187.715 26.889 187.363 26.889C187.13 26.889 186.833 26.8556 186.833 26.5518C186.833 26.3294 187.063 26.2145 187.26 26.2145C187.475 26.2197 187.69 26.1985 187.901 26.1515C187.94 26.1439 187.976 26.1275 188.008 26.1034C188.249 25.9255 188.227 24.8175 188.23 24.5507L188.368 15.8755C188.368 15.6049 188.468 15.1936 188.809 15.1936C189.149 15.1936 189.398 15.5345 189.59 15.7309C191.147 17.2837 192.681 18.8549 194.256 20.3965C194.712 20.8449 195.164 21.3007 195.616 21.7565L196.85 23.0091C196.987 23.1499 197.128 23.2981 197.272 23.4426L197.306 23.4612ZM80.478 25.9403C81.2189 25.9471 81.9369 25.6836 82.4976 25.1992C83.5315 24.2913 83.7724 22.7459 83.7724 21.4415C83.7724 19.5886 83.0794 17.6653 81.3377 16.7982C80.7868 16.527 80.1804 16.3875 79.5664 16.3906C76.9723 16.3906 76.0792 18.388 76.0792 20.7189C76.0792 23.4056 77.5615 25.907 80.478 25.907V25.9403ZM128.071 21.1228C128.426 21.2134 128.791 21.2546 129.157 21.2451C129.492 21.2903 129.833 21.2169 130.12 21.0376C130.426 20.8016 130.668 20.4937 130.826 20.1413C130.984 19.7889 131.052 19.403 131.025 19.018C131.051 18.6609 130.998 18.3025 130.87 17.9681C130.742 17.6338 130.541 17.3318 130.283 17.0835C129.896 16.7686 129.411 16.5983 128.912 16.6018C128.629 16.5925 128.345 16.6073 128.064 16.6463C128.062 16.6561 128.062 16.6661 128.064 16.6759V21.0339C128.06 21.0597 128.06 21.0859 128.064 21.1117L128.071 21.1228Z" fill="white"></path>
    <path fill-rule="evenodd" clip-rule="evenodd" d="M62.5606 35.5421L63.9207 32.0253C63.9688 31.8956 64.0615 31.6992 64.2282 31.6992C64.395 31.6992 64.5062 31.966 64.5581 32.0994L65.9885 35.5087C66.3183 34.5304 66.5999 33.5039 66.9038 32.5182C66.947 32.3914 66.9719 32.2592 66.9779 32.1254C66.9779 31.9994 66.7852 32.0105 66.7 32.0105C66.6147 32.0105 66.4813 31.9549 66.4813 31.8437C66.4813 31.7326 66.6444 31.6844 66.7519 31.6844C67.0187 31.6844 67.2892 31.6844 67.556 31.6844C67.7635 31.6844 67.9711 31.6844 68.1823 31.6844C68.2786 31.6844 68.4083 31.7103 68.4083 31.8326C68.409 31.8574 68.4044 31.8821 68.3947 31.905C68.3851 31.9279 68.3706 31.9484 68.3524 31.9653C68.3341 31.9821 68.3125 31.9949 68.2889 32.0027C68.2653 32.0105 68.2403 32.0131 68.2156 32.0105C68.1356 32.0091 68.0557 32.0191 67.9785 32.0401C67.8191 32.0994 67.6709 32.596 67.6079 32.7479C67.0743 34.1598 66.6036 35.6236 66.1256 37.0577C66.0737 37.2171 66.0107 37.4617 65.8032 37.4617C65.5957 37.4617 65.5178 37.206 65.4548 37.054L63.9985 33.6484C63.539 34.7602 63.1276 35.9312 62.6236 37.0244C62.5495 37.1837 62.4606 37.4617 62.2531 37.4617C62.0455 37.4617 62.0159 37.2727 61.964 37.1356L60.3705 32.5145C60.3335 32.407 60.2445 32.118 60.1408 32.055C60.0651 32.0214 59.9826 32.0062 59.8999 32.0105C59.7961 32.0105 59.6924 31.9623 59.6924 31.8437C59.6924 31.7251 59.8443 31.6844 59.9518 31.6844C60.2445 31.6844 60.5373 31.6844 60.8263 31.6844C61.1154 31.6844 61.4082 31.6844 61.6972 31.6844C61.8047 31.6844 61.9529 31.6844 61.9529 31.8437C61.9529 32.0031 61.8269 32.0105 61.7231 32.0105C61.6705 32.0103 61.618 32.0178 61.5675 32.0327C61.5657 32.0512 61.5657 32.0698 61.5675 32.0883C61.6039 32.307 61.6572 32.5226 61.7268 32.7331C61.864 33.226 62.0233 33.7263 62.1715 34.2154C62.3198 34.7046 62.4421 35.1011 62.5829 35.5384L62.5606 35.5421ZM73.0035 34.6193V35.2049C73.0035 35.5754 73.0035 35.9238 73.0035 36.2795C73.0257 36.8391 73.4704 36.7983 73.9336 36.7983C74.1605 36.8096 74.3875 36.7807 74.6044 36.7131C74.8008 36.6279 74.8452 36.4352 74.8786 36.2351C74.9008 36.1387 74.9416 36.0535 75.0528 36.0535C75.1639 36.0535 75.2121 36.2091 75.2121 36.3166C75.2044 36.595 75.1684 36.8719 75.1046 37.143C75.0305 37.4172 74.8638 37.3987 74.6155 37.3987C74.1523 37.3987 73.689 37.3987 73.2295 37.3727C72.9405 37.3727 72.6477 37.3727 72.3587 37.3727C72.2142 37.3727 72.0733 37.3727 71.9325 37.3727C71.7917 37.3727 71.5842 37.3727 71.41 37.3727C71.2988 37.3727 71.1728 37.3357 71.1728 37.206C71.1728 37.0763 71.2803 37.0392 71.3841 37.0392C71.4662 37.0409 71.5482 37.0334 71.6286 37.017C71.7546 36.9873 71.7695 36.8132 71.7806 36.7094C71.8195 36.1977 71.8306 35.6844 71.8139 35.1715V33.8782C71.8139 33.3705 71.8139 32.8517 71.8139 32.344C71.8139 32.1365 71.7546 32.0883 71.5545 32.0327C71.4644 32.014 71.3723 32.0065 71.2803 32.0105C71.1728 32.0105 71.0617 31.9623 71.0617 31.8437C71.0617 31.7251 71.2136 31.6844 71.3211 31.6844C71.6916 31.6844 72.0622 31.6844 72.4069 31.6844H73.4259C73.7558 31.6844 74.13 31.6844 74.4561 31.6844C74.5636 31.6844 74.66 31.6547 74.7637 31.6399C74.807 31.6245 74.8517 31.6133 74.8971 31.6066C74.9176 31.6058 74.938 31.6096 74.9568 31.6176C74.9757 31.6255 74.9926 31.6375 75.0064 31.6527C75.0201 31.6679 75.0304 31.6858 75.0365 31.7054C75.0426 31.725 75.0444 31.7456 75.0417 31.7659C75.0363 31.8146 75.0276 31.8629 75.0157 31.9104C74.9956 32.0206 74.9833 32.1321 74.9787 32.244C74.973 32.4089 74.9581 32.5735 74.9342 32.7368C74.912 32.8258 74.8712 32.9258 74.76 32.9258C74.6488 32.9258 74.6118 32.8406 74.6118 32.7405C74.6121 32.663 74.597 32.5861 74.5673 32.5145C74.4821 32.3292 74.3413 32.3181 74.1412 32.2995C73.941 32.281 73.7372 32.2995 73.5593 32.2773C73.3815 32.2551 73.1888 32.2773 73.0109 32.2773V34.0375C73.4111 34.0375 73.8966 34.0598 74.282 34.0375C74.3598 34.0375 74.5265 34.0375 74.5821 33.956C74.634 33.9115 74.6785 33.8411 74.76 33.8411C74.8016 33.844 74.8405 33.8631 74.8682 33.8942C74.8959 33.9254 74.9103 33.9662 74.9082 34.0079C74.8976 34.1891 74.8779 34.3697 74.8489 34.5489C74.8286 34.7075 74.8175 34.8671 74.8156 35.027C74.8156 35.1344 74.7822 35.279 74.6488 35.279C74.6289 35.2816 74.6085 35.28 74.5892 35.2741C74.57 35.2682 74.5522 35.2582 74.5371 35.2449C74.5219 35.2315 74.5099 35.2151 74.5017 35.1967C74.4935 35.1783 74.4893 35.1583 74.4895 35.1382C74.4895 35.0492 74.4895 34.9677 74.4673 34.8862C74.4191 34.7231 74.2894 34.686 74.1226 34.6712C73.7529 34.6398 73.3818 34.6287 73.0109 34.6379L73.0035 34.6193ZM79.7369 35.5347L79.3033 36.5056C79.2472 36.6363 79.2121 36.7752 79.1995 36.9169C79.1995 37.0355 79.3144 37.0318 79.4107 37.0318H79.5219C79.6331 37.0318 79.722 37.08 79.722 37.1986C79.722 37.3171 79.622 37.3653 79.5108 37.3653C79.2329 37.3653 78.9549 37.3394 78.6733 37.3394C78.3917 37.3394 78.0915 37.3653 77.8024 37.3653C77.6876 37.3653 77.5727 37.3357 77.5727 37.1986C77.5726 37.1757 77.5773 37.1531 77.5864 37.1321C77.5954 37.1111 77.6087 37.0922 77.6254 37.0765C77.6421 37.0609 77.6618 37.0488 77.6833 37.0412C77.7049 37.0335 77.7277 37.0303 77.7506 37.0318H77.9655C78.2916 36.9799 78.3954 36.7242 78.5139 36.4426L80.4965 31.8697C80.5484 31.7437 80.6374 31.525 80.8041 31.525C80.9709 31.525 81.0413 31.6659 81.108 31.8067C81.7676 33.289 82.3716 34.8009 83.0239 36.2869C83.1276 36.5278 83.3166 36.9466 83.5983 37.0281C83.6866 37.041 83.7758 37.0484 83.8651 37.0503C83.9725 37.0503 84.0578 37.1059 84.0578 37.2171C84.0578 37.4135 83.7724 37.3838 83.6427 37.3838C83.161 37.3838 82.6792 37.3838 82.1901 37.3838C82.0863 37.3838 81.8825 37.3838 81.8825 37.2319C81.8825 37.08 81.9566 37.0763 82.053 37.0651C82.053 37.0651 82.053 37.0355 82.053 37.0281L81.4749 35.568L79.7369 35.5347ZM79.9666 34.9529H81.2525L80.6188 33.3001L79.9666 34.9529ZM86.826 31.6844C87.1743 31.6844 87.519 31.6844 87.8636 31.6844C88.2082 31.6844 88.5862 31.6844 88.9494 31.6844C89.0568 31.6844 89.2014 31.6844 89.2014 31.8437C89.2014 32.0031 89.0828 32.0105 88.9753 32.0105C88.8835 32.0105 88.7918 32.018 88.7011 32.0327C88.5158 32.0661 88.5047 32.1735 88.4936 32.344C88.4565 32.8443 88.475 33.3816 88.475 33.8782V35.1641C88.475 35.3753 88.438 36.4833 88.6047 36.6242C88.906 36.7379 89.2287 36.7835 89.5497 36.7576C89.798 36.7576 90.176 36.7576 90.365 36.5797C90.4503 36.4723 90.5065 36.3446 90.528 36.2091C90.528 36.1054 90.5873 36.0201 90.7022 36.0201C90.8171 36.0201 90.8616 36.1721 90.8616 36.2721C90.8509 36.5642 90.8124 36.8545 90.7467 37.1393C90.6577 37.4246 90.4502 37.3987 90.1834 37.3987C89.7313 37.3987 89.2755 37.3987 88.8271 37.3727C88.4936 37.3727 88.16 37.3727 87.8302 37.3727C87.6857 37.3727 87.5449 37.3727 87.4041 37.3727C87.2633 37.3727 87.0557 37.3727 86.8779 37.3727C86.7704 37.3727 86.6444 37.3357 86.6444 37.206C86.6444 37.0763 86.7519 37.0392 86.8519 37.0392C86.9352 37.0411 87.0185 37.0337 87.1002 37.017C87.2262 36.9873 87.2373 36.8132 87.2521 36.7094C87.2911 36.1977 87.3022 35.6844 87.2855 35.1715V33.8782C87.2855 33.3705 87.2855 32.8517 87.2855 32.344C87.2855 32.1365 87.2262 32.0883 87.0261 32.0327C86.9519 32.0162 86.876 32.0087 86.8 32.0105C86.6926 32.0105 86.5814 31.966 86.5814 31.8437C86.5814 31.7214 86.7259 31.6844 86.8334 31.6844H86.826ZM95.5753 32.3144L94.5488 32.3366C94.3524 32.3366 94.0189 32.3366 93.8929 32.5256C93.8426 32.5915 93.8038 32.6654 93.778 32.7442C93.752 32.8332 93.7076 32.9036 93.6038 32.9036C93.5001 32.9036 93.4445 32.7961 93.4445 32.6923C93.4752 32.3881 93.531 32.0869 93.6112 31.7918C93.6298 31.6955 93.6668 31.5806 93.7854 31.5806C93.904 31.5806 94.0226 31.6547 94.1189 31.6696C94.3652 31.6935 94.6126 31.7046 94.8601 31.7029H97.9099C98.0774 31.7055 98.2449 31.6931 98.4102 31.6659C98.4732 31.6659 98.5732 31.6325 98.6325 31.6325C98.7734 31.6325 98.7808 31.7696 98.7808 31.8771C98.7808 32.1698 98.7808 32.4663 98.7808 32.7702C98.7808 32.8665 98.7363 32.9703 98.6251 32.9703C98.514 32.9703 98.4547 32.8591 98.4473 32.7442V32.6664C98.4176 32.3699 97.8506 32.3329 97.6468 32.3292H96.7908V35.1789C96.7783 35.6944 96.7919 36.2101 96.8315 36.7242C96.8501 36.8836 96.8686 36.9947 97.0465 37.0207C97.1692 37.0387 97.293 37.0473 97.417 37.0466C97.5171 37.0466 97.6283 37.1022 97.6283 37.2134C97.6283 37.3246 97.4949 37.3801 97.3911 37.3801C96.9872 37.3801 96.5795 37.3542 96.1756 37.3542C95.8495 37.3542 95.5197 37.3801 95.1936 37.3801C95.0861 37.3801 94.9564 37.3431 94.9564 37.2134C94.9564 37.0837 95.0639 37.0466 95.1676 37.0466C95.2497 37.0483 95.3318 37.0408 95.4122 37.0244C95.5382 36.9947 95.553 36.8243 95.5642 36.7168C95.6031 36.2052 95.6143 35.6918 95.5975 35.1789V32.3144H95.5753ZM106.504 34.0524V33.9375C106.504 33.4076 106.504 32.8739 106.485 32.344C106.485 32.1365 106.429 32.0883 106.226 32.0327C106.139 32.0158 106.051 32.0084 105.963 32.0105C105.855 32.0105 105.744 31.966 105.744 31.8437C105.744 31.7214 105.888 31.6844 105.996 31.6844C106.366 31.6844 106.737 31.6844 107.108 31.6844C107.426 31.6844 107.752 31.6844 108.075 31.6844C108.182 31.6844 108.327 31.6844 108.327 31.8437C108.327 32.0031 108.205 32.0105 108.097 32.0105C108.029 32.0124 107.96 32.0198 107.893 32.0327C107.712 32.0661 107.704 32.181 107.693 32.344C107.656 32.8443 107.675 33.3816 107.675 33.8782V35.1641C107.658 35.6794 107.669 36.1953 107.708 36.7094C107.73 36.8762 107.749 36.9799 107.934 37.0059C108.056 37.0257 108.181 37.0344 108.305 37.0318C108.401 37.0318 108.516 37.0911 108.516 37.1986C108.516 37.306 108.375 37.3653 108.271 37.3653C107.871 37.3653 107.474 37.3394 107.082 37.3394C106.752 37.3394 106.418 37.3653 106.089 37.3653C105.981 37.3653 105.837 37.3357 105.837 37.1986C105.839 37.1738 105.846 37.1498 105.858 37.1279C105.87 37.1061 105.886 37.0868 105.905 37.0712C105.924 37.0557 105.947 37.0442 105.971 37.0374C105.994 37.0306 106.019 37.0287 106.044 37.0318C106.13 37.0336 106.216 37.0261 106.3 37.0096C106.426 36.9799 106.441 36.8057 106.452 36.702C106.491 36.1953 106.502 35.6868 106.485 35.1789V34.6712H103.732V35.1789C103.717 35.6894 103.731 36.2004 103.772 36.7094C103.791 36.8724 103.809 36.9799 103.987 37.0059C104.11 37.0237 104.234 37.0324 104.358 37.0318C104.458 37.0318 104.569 37.0874 104.569 37.1986C104.569 37.3097 104.432 37.3653 104.325 37.3653C103.917 37.3653 103.509 37.3394 103.102 37.3394C102.779 37.3394 102.457 37.3653 102.134 37.3653C102.027 37.3653 101.897 37.3283 101.897 37.1986C101.897 37.0689 102.005 37.0318 102.109 37.0318C102.191 37.0334 102.273 37.026 102.353 37.0096C102.483 36.9799 102.494 36.8057 102.505 36.702C102.545 36.1904 102.558 35.677 102.542 35.1641V33.8782C102.542 33.3705 102.542 32.8517 102.542 32.344C102.542 32.1365 102.483 32.0883 102.283 32.0327C102.193 32.014 102.1 32.0065 102.008 32.0105C101.905 32.0105 101.79 31.9623 101.79 31.8437C101.79 31.7251 101.938 31.6844 102.042 31.6844C102.412 31.6844 102.783 31.6844 103.154 31.6844C103.524 31.6844 103.821 31.6844 104.154 31.6844C104.262 31.6844 104.399 31.7066 104.399 31.8437C104.399 31.9808 104.28 32.0105 104.173 32.0105C104.105 32.0124 104.039 32.0198 103.973 32.0327C103.787 32.0661 103.78 32.1735 103.765 32.344C103.732 32.8591 103.765 33.4224 103.765 33.9375V34.0524H106.504ZM117.88 35.694L119.818 31.7511C119.874 31.6436 119.963 31.5213 120.096 31.5213C120.23 31.5213 120.337 31.6992 120.356 31.8289L121.023 36.3166C121.056 36.5278 121.082 36.8947 121.327 36.9614C121.457 37.0037 121.593 37.0261 121.731 37.0281C121.827 37.0281 121.942 37.0726 121.942 37.1874C121.942 37.3023 121.768 37.3616 121.653 37.3616C121.141 37.3616 120.6 37.3394 120.089 37.3097C119.978 37.3097 119.781 37.2875 119.781 37.1356C119.785 37.0995 119.799 37.0653 119.822 37.0375C119.845 37.0097 119.876 36.9896 119.911 36.9799C119.919 36.9072 119.919 36.834 119.911 36.7613L119.54 33.8671L118.032 36.8947C117.962 37.0355 117.843 37.3542 117.662 37.3542C117.48 37.3542 117.354 37.0726 117.291 36.9392C117.145 36.6773 117.004 36.4142 116.869 36.1498C116.72 35.8756 116.542 35.5643 116.42 35.279C116.235 34.8454 116.001 34.3896 115.783 33.9523L115.457 36.5463C115.441 36.6556 115.432 36.7658 115.431 36.8762C115.431 36.9688 115.516 36.9873 115.59 37.0021C115.671 37.0226 115.755 37.0338 115.838 37.0355C115.927 37.0355 116.046 37.0874 116.046 37.1949C116.046 37.3023 115.898 37.369 115.775 37.369C115.512 37.369 115.245 37.3431 114.982 37.3431C114.719 37.3431 114.486 37.369 114.241 37.369C114.126 37.369 114.015 37.3283 114.015 37.1949C114.015 37.0614 114.13 37.0355 114.223 37.0355C114.296 37.0393 114.368 37.0393 114.441 37.0355C114.604 37.0133 114.656 36.6649 114.675 36.5538L115.416 31.8067C115.434 31.6844 115.516 31.5399 115.653 31.5399C115.79 31.5399 115.898 31.6918 115.964 31.8215L117.903 35.7125L117.88 35.694ZM127.76 35.5347H125.996L125.596 36.5056C125.538 36.6357 125.503 36.7749 125.492 36.9169C125.492 37.0355 125.603 37.0318 125.699 37.0318H125.811C125.922 37.0318 126.011 37.08 126.011 37.1986C126.011 37.3171 125.911 37.3653 125.803 37.3653C125.522 37.3653 125.244 37.3394 124.962 37.3394C124.68 37.3394 124.384 37.3653 124.091 37.3653C123.976 37.3653 123.865 37.3357 123.865 37.1986C123.865 37.1759 123.869 37.1533 123.877 37.1323C123.886 37.1113 123.899 37.0924 123.915 37.0767C123.932 37.061 123.951 37.0489 123.973 37.0412C123.994 37.0334 124.017 37.0302 124.039 37.0318H124.254C124.58 36.9799 124.688 36.7242 124.803 36.4426L126.763 31.8697C126.815 31.7437 126.904 31.525 127.071 31.525C127.237 31.525 127.308 31.6659 127.374 31.8067C128.034 33.289 128.638 34.8009 129.29 36.2869C129.394 36.5278 129.587 36.9466 129.865 37.0281C129.953 37.0409 130.042 37.0483 130.132 37.0503C130.239 37.0503 130.324 37.1059 130.324 37.2171C130.324 37.4135 130.039 37.3838 129.909 37.3838C129.427 37.3838 128.946 37.3838 128.46 37.3838C128.353 37.3838 128.153 37.3838 128.153 37.2319C128.153 37.08 128.227 37.0763 128.323 37.0651C128.323 37.0651 128.323 37.0355 128.323 37.0281L127.745 35.568L127.76 35.5347ZM126.233 34.9529H127.519L126.885 33.3001L126.233 34.9529ZM137.854 35.657L137.78 32.6071C137.78 32.4181 137.78 32.1254 137.584 32.0475C137.463 32.0158 137.338 32.0033 137.213 32.0105C137.106 32.0105 137.002 31.966 137.002 31.8437C137.002 31.7214 137.172 31.6844 137.284 31.6844C137.602 31.6844 137.925 31.6844 138.243 31.6844C138.484 31.6844 138.733 31.6844 138.985 31.6844C139.096 31.6844 139.248 31.6844 139.248 31.8437C139.248 32.0031 139.133 32.0105 139.029 32.0105C138.959 32.0066 138.889 32.0142 138.822 32.0327C138.599 32.0957 138.618 32.3514 138.614 32.5478L138.529 37.1319C138.529 37.2616 138.481 37.4505 138.318 37.4505C138.247 37.4473 138.178 37.4298 138.114 37.3993C138.051 37.3687 137.994 37.3257 137.947 37.2727C137.206 36.5871 136.465 35.8793 135.749 35.1752C135.379 34.8046 134.986 34.4341 134.612 34.0264C134.46 33.8671 134.286 33.6558 134.119 33.5039L134.2 36.2795C134.2 36.4278 134.2 36.9206 134.393 36.9836C134.513 37.0205 134.638 37.0368 134.764 37.0318C134.864 37.0318 134.982 37.08 134.982 37.1986C134.982 37.3171 134.83 37.3653 134.719 37.3653C134.393 37.3653 134.067 37.3394 133.745 37.3394C133.422 37.3394 133.204 37.3653 132.933 37.3653C132.818 37.3653 132.67 37.3653 132.67 37.1986C132.67 37.0318 132.785 37.0318 132.881 37.0318C132.988 37.0331 133.095 37.0232 133.2 37.0021C133.4 36.9503 133.363 36.3499 133.363 36.2054L133.407 31.8956C133.407 31.7585 133.456 31.5547 133.626 31.5547C133.797 31.5547 133.919 31.7251 134.015 31.8215C134.786 32.596 135.549 33.3742 136.331 34.1413L137.013 34.8343C137.284 35.1085 137.562 35.4087 137.84 35.6755L137.854 35.657ZM145.496 35.5347H143.739L143.339 36.5056C143.283 36.6363 143.248 36.7752 143.235 36.9169C143.235 37.0355 143.35 37.0318 143.446 37.0318H143.558C143.669 37.0318 143.758 37.08 143.758 37.1986C143.758 37.3171 143.658 37.3653 143.546 37.3653C143.268 37.3653 142.987 37.3394 142.709 37.3394C142.431 37.3394 142.127 37.3653 141.838 37.3653C141.723 37.3653 141.608 37.3357 141.608 37.1986C141.608 37.1757 141.613 37.1531 141.622 37.1321C141.631 37.1111 141.644 37.0922 141.661 37.0765C141.678 37.0609 141.697 37.0488 141.719 37.0412C141.74 37.0335 141.763 37.0303 141.786 37.0318H142.001C142.327 36.9799 142.431 36.7242 142.55 36.4426L144.502 31.8697C144.554 31.7437 144.643 31.525 144.806 31.525C144.969 31.525 145.047 31.6659 145.114 31.8067C145.774 33.289 146.378 34.8009 147.03 36.2869C147.134 36.5278 147.323 36.9466 147.604 37.0281C147.693 37.041 147.782 37.0484 147.871 37.0503C147.978 37.0503 148.064 37.1059 148.064 37.2171C148.064 37.4135 147.778 37.3838 147.649 37.3838C147.167 37.3838 146.681 37.3838 146.196 37.3838C146.092 37.3838 145.888 37.3838 145.888 37.2319C145.888 37.08 145.963 37.0763 146.063 37.0651C146.066 37.053 146.066 37.0402 146.063 37.0281L145.484 35.568L145.496 35.5347ZM143.969 34.9529H145.255L144.621 33.3001L143.969 34.9529ZM156.05 35.9831V36.7872C156.05 36.9577 156.05 37.0392 155.905 37.1244C155.308 37.3678 154.667 37.4828 154.023 37.4617C152.151 37.4617 150.45 36.6056 150.45 34.5193C150.44 34.0258 150.561 33.5385 150.801 33.1069C151.04 32.6754 151.39 32.315 151.814 32.0624C152.446 31.7107 153.163 31.5437 153.885 31.5806C154.339 31.5782 154.792 31.6191 155.238 31.7029C155.434 31.7392 155.632 31.764 155.831 31.777C155.938 31.777 156.013 31.8363 156.013 31.9549C156.013 32.0735 155.994 32.155 155.987 32.2477C155.964 32.5478 155.961 32.8517 155.961 33.1519C155.961 33.2742 155.909 33.4039 155.768 33.4039C155.627 33.4039 155.616 33.3297 155.601 33.2297C155.591 33.0269 155.509 32.8342 155.371 32.6849C154.927 32.3194 154.364 32.1307 153.789 32.155C153.289 32.1081 152.789 32.2539 152.392 32.5626C152.16 32.7772 151.98 33.042 151.865 33.3367C151.751 33.6315 151.706 33.9486 151.732 34.2636C151.732 35.7867 152.711 36.8762 154.26 36.8762C154.427 36.8897 154.595 36.8669 154.753 36.8095C154.834 36.7724 154.845 36.7205 154.845 36.6353V35.9682C154.845 35.6829 154.845 35.3976 154.845 35.1159C154.845 34.9047 154.782 34.8602 154.586 34.8046C154.498 34.7879 154.409 34.7804 154.319 34.7824C154.223 34.7824 154.108 34.7268 154.108 34.6156C154.108 34.5045 154.252 34.4563 154.363 34.4563C154.734 34.4563 155.134 34.4563 155.516 34.4563C155.812 34.4563 156.105 34.4563 156.398 34.4563C156.509 34.4563 156.643 34.4563 156.643 34.6156C156.642 34.6388 156.636 34.6616 156.626 34.6827C156.616 34.7037 156.602 34.7225 156.585 34.7381C156.568 34.7536 156.548 34.7655 156.526 34.7731C156.504 34.7807 156.48 34.7839 156.457 34.7824C156.393 34.7838 156.33 34.7925 156.268 34.8083C156.083 34.838 156.061 34.938 156.053 35.1159C156.053 35.405 156.053 35.694 156.053 35.9831H156.05ZM161.731 32.2773V34.0375C162.131 34.0375 162.616 34.0598 163.002 34.0375C163.107 34.0391 163.211 34.0108 163.302 33.956C163.357 33.9115 163.402 33.8411 163.48 33.8411C163.501 33.8421 163.521 33.8472 163.54 33.8561C163.559 33.865 163.576 33.8775 163.59 33.893C163.604 33.9085 163.615 33.9266 163.622 33.9463C163.629 33.966 163.633 33.987 163.632 34.0079C163.62 34.1892 163.599 34.3698 163.569 34.5489C163.569 34.6972 163.535 34.8787 163.535 35.027C163.535 35.1752 163.506 35.279 163.369 35.279C163.349 35.2816 163.328 35.28 163.309 35.2741C163.29 35.2682 163.272 35.2582 163.257 35.2449C163.242 35.2315 163.23 35.2151 163.221 35.1967C163.213 35.1783 163.209 35.1583 163.209 35.1382C163.209 35.0492 163.209 34.9677 163.187 34.8862C163.139 34.7231 163.009 34.686 162.846 34.6712C162.476 34.6398 162.105 34.6287 161.734 34.6379V35.2049C161.734 35.5754 161.734 35.9238 161.734 36.2795C161.753 36.8391 162.201 36.7983 162.661 36.7983C162.889 36.8093 163.117 36.7805 163.335 36.7131C163.528 36.6279 163.576 36.4352 163.609 36.2351C163.632 36.1387 163.669 36.0535 163.784 36.0535C163.898 36.0535 163.943 36.2091 163.943 36.3166C163.935 36.595 163.899 36.8719 163.835 37.143C163.761 37.4172 163.591 37.3987 163.346 37.3987C162.883 37.3987 162.42 37.3987 161.957 37.3727C161.668 37.3727 161.379 37.3727 161.086 37.3727C160.945 37.3727 160.804 37.3727 160.663 37.3727C160.522 37.3727 160.293 37.3727 160.137 37.3727C160.03 37.3727 159.9 37.3357 159.9 37.206C159.9 37.0763 160.007 37.0392 160.111 37.0392C160.193 37.0409 160.275 37.0334 160.356 37.017C160.485 36.9873 160.497 36.8132 160.511 36.7094C160.548 36.1977 160.56 35.6844 160.545 35.1715V33.8782C160.545 33.3705 160.545 32.8517 160.545 32.344C160.545 32.1365 160.485 32.0883 160.285 32.0327C160.195 32.014 160.103 32.0065 160.011 32.0105C159.907 32.0105 159.792 31.9623 159.792 31.8437C159.792 31.7251 159.948 31.6844 160.056 31.6844C160.426 31.6844 160.778 31.6844 161.141 31.6844H162.16C162.49 31.6844 162.861 31.6844 163.191 31.6844C163.298 31.6844 163.391 31.6547 163.494 31.6399C163.539 31.6245 163.585 31.6133 163.632 31.6066C163.652 31.6064 163.672 31.6105 163.69 31.6187C163.709 31.627 163.725 31.639 163.738 31.6541C163.752 31.6692 163.762 31.687 163.768 31.7063C163.773 31.7256 163.775 31.7459 163.772 31.7659C163.769 31.8149 163.76 31.8633 163.746 31.9104C163.728 32.0207 163.717 32.1321 163.713 32.244C163.695 32.3996 163.713 32.5812 163.669 32.7368C163.646 32.8258 163.606 32.9258 163.494 32.9258C163.383 32.9258 163.343 32.8406 163.343 32.7405C163.344 32.6632 163.33 32.5864 163.302 32.5145C163.217 32.3292 163.076 32.3181 162.876 32.2995C162.676 32.281 162.468 32.2995 162.29 32.2773C162.112 32.2551 161.92 32.2773 161.745 32.2773H161.731ZM170.802 35.6866L172.744 31.7437C172.796 31.6362 172.885 31.5139 173.022 31.5139C173.159 31.5139 173.259 31.6918 173.281 31.8215L173.967 36.3166C173.997 36.5278 174.026 36.891 174.271 36.9614C174.4 37.0039 174.535 37.0264 174.671 37.0281C174.767 37.0281 174.882 37.0726 174.882 37.1874C174.882 37.3023 174.708 37.3616 174.593 37.3616C174.086 37.3616 173.545 37.3394 173.033 37.3097C172.922 37.3097 172.726 37.2875 172.726 37.1356C172.728 37.0998 172.741 37.0657 172.764 37.0378C172.786 37.01 172.817 36.9897 172.852 36.9799C172.861 36.9073 172.861 36.8338 172.852 36.7613L172.481 33.8671L170.976 36.8947C170.906 37.0355 170.787 37.3542 170.606 37.3542C170.424 37.3542 170.298 37.0726 170.235 36.9392L169.813 36.1498C169.668 35.8793 169.483 35.5606 169.368 35.279C169.175 34.8417 168.946 34.3933 168.727 33.956L168.401 36.55C168.385 36.6593 168.376 36.7695 168.375 36.8799C168.375 36.9725 168.46 36.991 168.534 37.0059C168.616 37.026 168.699 37.0372 168.783 37.0392C168.875 37.0392 168.994 37.0911 168.994 37.1986C168.994 37.306 168.842 37.3727 168.723 37.3727C168.457 37.3727 168.19 37.3468 167.927 37.3468C167.663 37.3468 167.43 37.3727 167.185 37.3727C167.071 37.3727 166.959 37.332 166.959 37.1986C166.959 37.0651 167.074 37.0392 167.171 37.0392C167.243 37.0429 167.316 37.0429 167.389 37.0392C167.552 37.017 167.6 36.6686 167.619 36.5575L168.36 31.8104C168.36 31.6881 168.457 31.5436 168.594 31.5436C168.731 31.5436 168.838 31.6955 168.905 31.8252L170.843 35.7162L170.802 35.6866ZM179.696 32.2773V34.0375C180.096 34.0375 180.582 34.0598 180.963 34.0375C181.045 34.0375 181.208 34.0375 181.264 33.956C181.316 33.9115 181.364 33.8411 181.441 33.8411C181.462 33.8421 181.483 33.8472 181.502 33.8561C181.521 33.865 181.538 33.8775 181.552 33.893C181.566 33.9085 181.577 33.9266 181.584 33.9463C181.591 33.966 181.594 33.987 181.593 34.0079C181.582 34.1892 181.561 34.3698 181.53 34.5489C181.51 34.7075 181.499 34.8671 181.497 35.027C181.497 35.1344 181.467 35.279 181.33 35.279C181.31 35.2816 181.29 35.28 181.271 35.2741C181.251 35.2682 181.234 35.2582 181.219 35.2449C181.203 35.2315 181.191 35.2151 181.183 35.1967C181.175 35.1783 181.171 35.1583 181.171 35.1382C181.171 35.0492 181.171 34.9677 181.149 34.8862C181.101 34.7231 180.971 34.686 180.804 34.6712C180.434 34.6397 180.063 34.6286 179.692 34.6379V35.2049C179.692 35.5754 179.692 35.9238 179.692 36.2795C179.711 36.8391 180.159 36.7983 180.619 36.7983C180.847 36.8093 181.075 36.7805 181.293 36.7131C181.486 36.6279 181.53 36.4352 181.568 36.2351C181.586 36.1387 181.627 36.0535 181.738 36.0535C181.849 36.0535 181.897 36.2091 181.897 36.3166C181.891 36.5949 181.856 36.8717 181.794 37.143C181.719 37.4172 181.549 37.3987 181.304 37.3987C180.841 37.3987 180.374 37.3987 179.915 37.3727C179.626 37.3727 179.333 37.3727 179.044 37.3727C178.903 37.3727 178.762 37.3727 178.621 37.3727C178.481 37.3727 178.269 37.3727 178.095 37.3727C177.988 37.3727 177.858 37.3357 177.858 37.206C177.858 37.0763 177.965 37.0392 178.069 37.0392C178.151 37.0409 178.233 37.0334 178.314 37.017C178.444 36.9873 178.455 36.8132 178.466 36.7094C178.505 36.1977 178.516 35.6844 178.499 35.1715V33.8782C178.499 33.3705 178.499 32.8517 178.499 32.344C178.499 32.1365 178.44 32.0883 178.24 32.0327C178.15 32.014 178.057 32.0065 177.965 32.0105C177.862 32.0105 177.747 31.9623 177.747 31.8437C177.747 31.7251 177.899 31.6844 178.006 31.6844C178.377 31.6844 178.747 31.6844 179.096 31.6844H180.1C180.43 31.6844 180.804 31.6844 181.13 31.6844C181.238 31.6844 181.334 31.6547 181.438 31.6399C181.482 31.624 181.528 31.6129 181.575 31.6066C181.595 31.6064 181.615 31.6105 181.633 31.6187C181.652 31.627 181.668 31.639 181.682 31.6541C181.695 31.6692 181.705 31.687 181.711 31.7063C181.717 31.7256 181.718 31.7459 181.716 31.7659C181.71 31.8146 181.702 31.8629 181.69 31.9104C181.671 32.0207 181.66 32.1321 181.656 32.244C181.656 32.3996 181.656 32.5812 181.608 32.7368C181.586 32.8258 181.549 32.9258 181.438 32.9258C181.327 32.9258 181.286 32.8406 181.286 32.7405C181.287 32.6632 181.274 32.5864 181.245 32.5145C181.156 32.3292 181.019 32.3181 180.819 32.2995C180.619 32.281 180.411 32.2995 180.233 32.2773C180.056 32.2551 179.863 32.2773 179.689 32.2773H179.696ZM186.57 33.4965L186.652 36.2721C186.652 36.4203 186.652 36.9132 186.845 36.9762C186.964 37.0131 187.09 37.0294 187.215 37.0244C187.315 37.0244 187.434 37.0726 187.434 37.1911C187.434 37.3097 187.282 37.3579 187.171 37.3579C186.845 37.3579 186.518 37.332 186.196 37.332C185.874 37.332 185.655 37.3579 185.384 37.3579C185.27 37.3579 185.121 37.3579 185.121 37.1911C185.121 37.0244 185.236 37.0244 185.333 37.0244C185.44 37.0257 185.546 37.0158 185.651 36.9947C185.851 36.9429 185.814 36.3425 185.814 36.198L185.885 31.8882C185.885 31.7511 185.933 31.5473 186.103 31.5473C186.274 31.5473 186.396 31.7177 186.492 31.8141C187.263 32.5886 188.027 33.3668 188.809 34.1339L189.476 34.8343C189.746 35.1085 190.024 35.4087 190.302 35.6755L190.228 32.6256C190.228 32.4367 190.228 32.1439 190.031 32.0661C189.911 32.0343 189.786 32.0218 189.661 32.029C189.553 32.029 189.453 31.9845 189.453 31.8623C189.453 31.74 189.62 31.7029 189.731 31.7029C190.05 31.7029 190.372 31.7029 190.691 31.7029C190.932 31.7029 191.18 31.7029 191.432 31.7029C191.543 31.7029 191.695 31.7029 191.695 31.8623C191.695 32.0216 191.58 32.029 191.477 32.029C191.407 32.0252 191.337 32.0327 191.269 32.0513C191.047 32.1142 191.065 32.3699 191.062 32.5664L190.976 37.1504C190.976 37.2801 190.928 37.4691 190.765 37.4691C190.695 37.4658 190.625 37.4484 190.562 37.4178C190.498 37.3873 190.441 37.3442 190.395 37.2912C189.653 36.6056 188.912 35.8978 188.197 35.1937C187.808 34.8232 187.43 34.4526 187.059 34.045C186.908 33.8856 186.733 33.6744 186.567 33.5224L186.57 33.4965ZM196.776 32.3144L195.746 32.3366C195.549 32.3366 195.22 32.3366 195.09 32.5256C195.04 32.5915 195.001 32.6654 194.975 32.7442C194.949 32.8332 194.908 32.9036 194.804 32.9036C194.701 32.9036 194.645 32.7961 194.645 32.6923C194.674 32.3882 194.729 32.0869 194.808 31.7918C194.827 31.6955 194.867 31.5806 194.982 31.5806C195.097 31.5806 195.223 31.6547 195.32 31.6696C195.566 31.6936 195.813 31.7047 196.061 31.7029H199.114C199.282 31.7052 199.449 31.6928 199.615 31.6659C199.674 31.6659 199.778 31.6325 199.833 31.6325C199.974 31.6325 199.985 31.7696 199.985 31.8771C199.985 32.1698 199.985 32.4663 199.985 32.7702C199.985 32.8665 199.941 32.9703 199.826 32.9703C199.711 32.9703 199.659 32.8591 199.652 32.7442V32.6664C199.626 32.3699 199.055 32.3329 198.851 32.3292H197.995V35.1789C197.982 35.6944 197.997 36.2103 198.04 36.7242C198.058 36.8836 198.077 36.9947 198.251 37.0207C198.374 37.0385 198.497 37.0472 198.621 37.0466C198.721 37.0466 198.833 37.1022 198.833 37.2134C198.833 37.3246 198.703 37.3801 198.595 37.3801C198.192 37.3801 197.788 37.3542 197.384 37.3542C197.058 37.3542 196.728 37.3801 196.398 37.3801C196.29 37.3801 196.164 37.3431 196.164 37.2134C196.164 37.0837 196.272 37.0466 196.372 37.0466C196.455 37.0485 196.539 37.0411 196.62 37.0244C196.746 36.9947 196.761 36.8243 196.772 36.7168C196.811 36.2052 196.822 35.6918 196.806 35.1789V32.3144H196.776Z" fill="white"></path>
  </g>
  <defs>
    <clipPath id="clip0_1234_1151">
      <rect width="200.111" height="60" fill="white"></rect>
    </clipPath>
  </defs>
</svg>
