<svg width="302" height="199" viewBox="0 0 302 199" fill="none" xmlns="http://www.w3.org/2000/svg">
<mask id="mask0_911_12" style="mask-type:luminance" maskUnits="userSpaceOnUse" x="-8" y="0" width="310" height="204">
<path d="M301.478 0H-8V204H301.478V0Z" fill="white"/>
</mask>
<g mask="url(#mask0_911_12)">
<path fill-rule="evenodd" clip-rule="evenodd" d="M162.032 8.57373L173.638 15.0855L200.536 30.1626V60.325V90.4876L173.638 105.564L162.032 112.077V103.494V100.648V69.5082V59.6655V54.9821V53.4042L167.13 50.5492L172.219 53.4042V54.9821V65.3842V69.5082V94.9289L190.341 84.769V60.325V35.8811L168.54 23.6508L162.032 20.0026V8.57373Z" fill="#F0F0F0"/>
<path fill-rule="evenodd" clip-rule="evenodd" d="M114.837 41.4745H141.641V106.366V110.691V117.795L146.739 120.65L151.837 117.795V110.691V106.366V41.4745H178.641V35.7392L171.222 31.5734H151.837V4.42462V2.85513L146.739 0L141.641 2.85513V4.42462V31.5734H122.264L114.837 35.7392V41.4745Z" fill="#D99227"/>
<path fill-rule="evenodd" clip-rule="evenodd" d="M131.446 8.57373L119.84 15.0855L92.9414 30.1626V60.325V90.4876L119.84 105.564L131.446 112.077V103.494V100.648V69.5082V59.6655V54.9821V53.4042L126.348 50.5492L121.259 53.4042V54.9821V65.3842V69.5082V94.9289L103.137 84.769V60.325V35.8811L124.938 23.6508L131.446 20.0026V8.57373Z" fill="#F0F0F0"/>
</g>
</svg>
